<svg id="backtotop" xmlns="http://www.w3.org/2000/svg" width="27.416" height="32" viewBox="0 0 27.416 32">
  <path id="backtotop-2" data-name="backtotop" d="M1286.466,490.918h-23.5a1.959,1.959,0,0,1,0-3.918h23.5a1.959,1.959,0,1,1,0,3.918Zm-13.492,3.892a3.123,3.123,0,0,1,3.507,0l9.691,9.694a1.959,1.959,0,1,1-2.769,2.768l-6.727-6.727v16.494a1.959,1.959,0,0,1-1.959,1.959h0a1.959,1.959,0,0,1-1.959-1.959V500.566l-6.707,6.707a1.959,1.959,0,0,1-2.769-2.768Z" transform="translate(-1261.01 -487)"  fill-rule="evenodd"/>
</svg>
