<svg xmlns="http://www.w3.org/2000/svg" width="17.31" height="17.315" viewBox="0 0 17.31 17.315">
  <g id="btn_close" transform="translate(18744 23063)">
    <path id="close" d="M1681.84,73l6.44,6.437a1.315,1.315,0,0,1,0,1.839,1.3,1.3,0,0,1-1.84,0L1680,74.839l-6.44,6.437a1.3,1.3,0,0,1-1.84,0,1.315,1.315,0,0,1,0-1.839L1678.16,73l-6.44-6.437a1.315,1.315,0,0,1,0-1.839,1.3,1.3,0,0,1,1.84,0l6.44,6.437,6.44-6.437a1.3,1.3,0,0,1,1.84,0,1.315,1.315,0,0,1,0,1.839Z" transform="translate(-20415.346 -23127.342)" fill-rule="evenodd"/>
  </g>
</svg>
