<svg xmlns="http://www.w3.org/2000/svg" width="17.883" height="17.612" viewBox="0 0 17.883 17.612">
  <path id="Cookies" d="M17.626,5.739a.253.253,0,1,1,.247-.253A.25.25,0,0,1,17.626,5.739ZM16.516,8.375a.271.271,0,0,1-.409-.012L15.866,7.8c-.086-.158-.091-.271.022-.384l.364-.16a.249.249,0,0,1,.329.064l.3.24c.115.132.024.229-.057.366ZM14.934,5.581l-.742-.253a.51.51,0,0,1-.4-.538l.062-.411c0-.35.324-.506.619-.6l.619-.19a.548.548,0,0,1,.588.569l-.217.886C15.382,5.393,15.245,5.565,14.934,5.581Zm.707,3.663c0,.067-.01.134-.01.2a2.776,2.776,0,0,0,1.821,2.622c-.684,3.357-3.781,6.29-8.424,6.253-1.785-.014-2.8-1.637-4.365-2.33C2.337,14.959-.01,12.8-.01,9.853a11.228,11.228,0,0,1,1.7-6.012C3.153,1.8,4.617,1.8,6.081,1.248a8.289,8.289,0,0,1,7.1.579,4.612,4.612,0,0,0-1.059,2.952A4.547,4.547,0,0,0,15.64,9.244ZM8.924,15.075a.382.382,0,1,0-.374-.382A.378.378,0,0,0,8.924,15.075Zm-.8-4.509a.517.517,0,1,0-.505-.517A.511.511,0,0,0,8.128,10.566ZM4.071,8.609c-.785-.005-1.452.852-1.7,1.433a1.714,1.714,0,0,0,1.7,1.473c.785,0,2.032-.2,1.852-.976C5.675,9.462,4.861,8.614,4.071,8.609Zm4.4-5.559c-1.13,0-2.6,1.692-2.6,2.848S7.326,7.671,8.457,7.671A2.07,2.07,0,0,0,10.5,5.578C10.5,4.422,9.6,3.05,8.467,3.05Zm3.163,9.5a.8.8,0,0,0-1.012,1.008,1.3,1.3,0,0,0,1.192,1.053c.457,0,1.421-.708,1.421-1.181S12.236,12.7,11.631,12.548ZM12.815,8.9a.517.517,0,1,0,.505.517A.511.511,0,0,0,12.815,8.9Z" transform="translate(0.01 -0.709)"  fill-rule="evenodd"/>
</svg>
