<svg id="help" xmlns="http://www.w3.org/2000/svg" width="32" height="32" viewBox="0 0 32 32">
  <path id="help-2" data-name="help" d="M100,58A16,16,0,1,1,84,74a16,16,0,0,1,16-16Zm.98,16.747a9.036,9.036,0,0,1,.9-1.253q.49-.566.97-1.166a6.08,6.08,0,0,0,.806-1.34,3.746,3.746,0,0,0,.326-1.525,3.807,3.807,0,0,0-1.21-3,4.614,4.614,0,0,0-3.191-1.078A5.563,5.563,0,0,0,95.84,66.83a.829.829,0,0,0-.284.633.937.937,0,0,0,.305.719,1.041,1.041,0,0,0,.7.261h.021a1.426,1.426,0,0,0,.741-.261,3.207,3.207,0,0,1,1.983-.7,2.1,2.1,0,0,1,1.6.61,2.163,2.163,0,0,1,.577,1.548,2.56,2.56,0,0,1-.327,1.22,7.1,7.1,0,0,1-.795,1.173q-.468.566-.948,1.155a6.9,6.9,0,0,0-.853,1.351,3.932,3.932,0,0,0-.458,1.7.89.89,0,0,0,.305.675,1.2,1.2,0,0,0,.853.326,1.01,1.01,0,0,0,.747-.326,1.513,1.513,0,0,0,.409-.783A4.56,4.56,0,0,1,100.98,74.747Zm-.468,7.533A1.747,1.747,0,0,0,101,81a1.862,1.862,0,0,0-.491-1.308,1.578,1.578,0,0,0-1.21-.533,1.616,1.616,0,0,0-1.231.523,1.837,1.837,0,0,0-.491,1.308,1.761,1.761,0,0,0,.491,1.285,1.651,1.651,0,0,0,1.231.5,1.626,1.626,0,0,0,1.21-.5Z" transform="translate(-84 -58)" fill-rule="evenodd"/>
</svg>
