<svg xmlns="http://www.w3.org/2000/svg" width="62.231" height="67.927" viewBox="0 0 62.231 67.927">
  <g id="icon_commission" transform="translate(-100 -1601)">
    <path id="Polygon_2_copy" data-name="Polygon 2 copy" d="M82.853,71.127c8.9,0,16.111,4.015,16.111,8.968s-7.213,8.968-16.111,8.968S66.741,85.048,66.741,80.1,73.954,71.127,82.853,71.127ZM81.674,83.979v1.369h2.192V83.931a6.478,6.478,0,0,0,2.908-.887,2,2,0,0,0,1.02-1.7,1.516,1.516,0,0,0-.369-1,2.841,2.841,0,0,0-.966-.726,10.422,10.422,0,0,0-1.324-.519q-.727-.232-1.454-.417t-1.324-.369a3.8,3.8,0,0,1-.966-.429.679.679,0,0,1-.369-.554q0-1.012,2.04-1.012a6.248,6.248,0,0,1,2.843.726l1.649-1.024a8.5,8.5,0,0,0-3.689-1.119V73.524H81.674v1.4a6.238,6.238,0,0,0-2.766.833A1.929,1.929,0,0,0,77.9,77.417a1.387,1.387,0,0,0,.369.934,2.814,2.814,0,0,0,.966.7,11.694,11.694,0,0,0,1.324.506q.727.232,1.443.429t1.313.4a3.521,3.521,0,0,1,.966.475.767.767,0,0,1,.369.608q0,1.072-2.257,1.071a9.274,9.274,0,0,1-3.668-.821l-1.458,1.205A11.558,11.558,0,0,0,81.674,83.979Zm1.22,6.642a31.41,31.41,0,0,0,4.351-.3,15.319,15.319,0,0,0-3.738,3.944c-.2,0-.408.008-.614.008-8.7,0-15.783-3.447-16.1-7.759h-.012v-3.7H66.8C67.06,87.15,74.166,90.621,82.894,90.621Zm-.456,5.563A15.227,15.227,0,0,0,81.275,99.8c-7.942-.4-14.183-3.678-14.476-7.718h-.013v-3.7H66.8C67.055,92.641,73.92,96.065,82.438,96.184Zm-1.387,5.338c-.028.378-.047.758-.047,1.144a15.443,15.443,0,0,0,.209,2.518C73.3,104.772,67.091,101.5,66.8,97.468h-.012v-3.7H66.8c.245,4.023,6.391,7.3,14.256,7.751Zm.467,5.089a15.23,15.23,0,0,0,1.515,3.68h-.14c-8.7,0-15.783-3.447-16.1-7.759h-.012v-3.7H66.8C67.046,102.939,73.431,106.268,81.519,106.611ZM96.193,87.385c-.139,0-.276.007-.414.01,1.927-1.284,3.109-2.864,3.213-4.58H99v3.7h-.012a4.259,4.259,0,0,1-.232,1.093A15.149,15.149,0,0,0,96.193,87.385Zm0,2.019a13.261,13.261,0,1,1-13.18,13.261A13.261,13.261,0,0,1,96.193,89.4Zm-.754,20.539v2.195h1.916v-2.271a3.972,3.972,0,0,0,3.434-4.141,3.814,3.814,0,0,0-.323-1.6,3.405,3.405,0,0,0-.844-1.164,7.443,7.443,0,0,0-1.157-.83q-.635-.373-1.271-.668t-1.157-.592a2.97,2.97,0,0,1-.844-.687,1.355,1.355,0,0,1-.322-.888q0-1.622,1.783-1.622a3.7,3.7,0,0,1,2.485,1.164l1.442-1.642A5.4,5.4,0,0,0,97.355,95.4V93.186H95.439v2.252a3.818,3.818,0,0,0-3.3,3.989,3.435,3.435,0,0,0,.322,1.5,3.259,3.259,0,0,0,.844,1.117,8.262,8.262,0,0,0,1.157.811q.635.372,1.261.687t1.148.639a3,3,0,0,1,.844.764,1.6,1.6,0,0,1,.323.973q0,1.718-1.973,1.718a5.25,5.25,0,0,1-3.206-1.317l-1.271,1.928a6.735,6.735,0,0,0,3.852,1.7Z" transform="translate(43 1553)" fill="#f5f5f5" fill-rule="evenodd"/>
    <path id="Polygon_2_copy-2" data-name="Polygon 2 copy" d="M118.431,66.01a2.576,2.576,0,0,1-4.075.008,5.1,5.1,0,0,1,0-5.439,2.582,2.582,0,0,1,4.075,0,5.043,5.043,0,0,1,0,5.432Zm-2.041-4.88q-.984,0-.984,2.161,0,2.176.984,2.176t.969-2.176Q117.359,61.13,116.39,61.13Zm-7.93,5.883,6.021-12.105h1.542l-6.051,12.105Zm-.4-4.689a2.46,2.46,0,0,1-2.041-1,4.354,4.354,0,0,1-.778-2.735,4.228,4.228,0,0,1,.778-2.7,2.481,2.481,0,0,1,2.041-.981,2.522,2.522,0,0,1,2.056.981,4.172,4.172,0,0,1,.793,2.7,4.3,4.3,0,0,1-.793,2.735,2.5,2.5,0,0,1-2.056,1Zm0-5.884q-.969,0-.969,2.145,0,2.206.969,2.206a.809.809,0,0,0,.713-.528,3.872,3.872,0,0,0,.271-1.678q0-2.144-.984-2.145Zm-7.945,10.573a3.31,3.31,0,0,1-2.886-1.586A8.092,8.092,0,0,1,96.168,60.9a7.8,7.8,0,0,1,1.063-4.466,3.5,3.5,0,0,1,5.786.016A7.709,7.709,0,0,1,104.1,60.9a8,8,0,0,1-1.08,4.528A3.345,3.345,0,0,1,100.118,67.013Zm1.241-8.52a2.467,2.467,0,0,0-.507-1.165,1.03,1.03,0,0,0-.735-.276.963.963,0,0,0-.558.161,1.489,1.489,0,0,0-.441.559,3.868,3.868,0,0,0-.316,1.187,14.423,14.423,0,0,0-.11,1.938,8.722,8.722,0,0,0,.374,3.087q.374.866,1.05.864t1.065-.864a8.4,8.4,0,0,0,.389-3.087,10.779,10.779,0,0,0-.212-2.4Zm-7.614,1.632a3.638,3.638,0,0,1,.984,2.75,3.928,3.928,0,0,1-4.039,4.138A5.239,5.239,0,0,1,86.784,65.4L88,63.642a3.3,3.3,0,0,0,2.29,1.118,1.746,1.746,0,0,0,1.3-.467,1.849,1.849,0,0,0,.462-1.356,1.868,1.868,0,0,0-.448-1.333,1.569,1.569,0,0,0-1.2-.475,2.138,2.138,0,0,0-.756.115,4.652,4.652,0,0,0-.815.452l-1.175-.8.279-5.777h6.3v2.329H90.248l-.162,1.977a3.075,3.075,0,0,1,1.16-.245,3.465,3.465,0,0,1,2.5.943Zm-10.457,2.4a2.2,2.2,0,0,1-.933-.207,2.729,2.729,0,0,1-.724-.466,3.716,3.716,0,0,0-.624-.468,1.278,1.278,0,0,0-.653-.207q-.661,0-1.234,1.042L77.739,61.1q1.19-1.885,2.644-1.885a2.168,2.168,0,0,1,.918.207,3.014,3.014,0,0,1,.735.46,4.255,4.255,0,0,0,.632.46,1.278,1.278,0,0,0,.653.207q.675,0,1.234-.994l1.38,1.1a3.26,3.26,0,0,1-2.645,1.868ZM71.934,65.288l-.907-3.612-3.612-.9,3.612-.907.9-3.613.907,3.612,3.614.9-3.612.907ZM64.54,63.069l-1.512-6.026L57,55.54l6.026-1.512L64.531,48l1.512,6.026,6.028,1.5-6.026,1.512Z" transform="translate(43 1553)" fill="#f5f5f5" fill-rule="evenodd"/>
  </g>
</svg>
