<svg xmlns="http://www.w3.org/2000/svg" width="18" height="12.922" viewBox="0 0 18 12.922">
  <path id="icon_loyaltyclub" d="M1432.45,62.062c.042-.133.078-.27.13-.4a1.644,1.644,0,0,1,1.586-1.033q2.379,0,4.748,0h9.808a1.656,1.656,0,0,1,1.674,1.254,2.033,2.033,0,0,1,.052.468v9.474a1.654,1.654,0,0,1-1.711,1.723q-7.286,0-14.566,0a1.651,1.651,0,0,1-1.69-1.369.3.3,0,0,0-.031-.062V62.062Zm9,.828h5.533a.546.546,0,0,1,.619.4.513.513,0,0,1-.39.641,1.2,1.2,0,0,1-.244.017h-11.03a.541.541,0,1,1-.005-1.054Zm3.682,2.825h1.9a.531.531,0,1,1-.005,1.054h-3.812a.531.531,0,1,1,.005-1.054h1.914Zm-.021,3.312h-1.893a.531.531,0,1,1-.005-1.054h3.849a.536.536,0,0,1,.562.473.525.525,0,0,1-.385.559.969.969,0,0,1-.244.021C1446.371,69.029,1445.742,69.028,1445.113,69.028Zm-.541,1.206c.457,0,.92,0,1.383,0a.514.514,0,0,1,.52.39.506.506,0,0,1-.244.585.736.736,0,0,1-.317.074c-.91.005-1.815.006-2.72,0a.533.533,0,0,1-.577-.528.54.54,0,0,1,.582-.52h1.373Zm-7.135-4.7a.552.552,0,0,1,.957,0l.7,1.2,1.357.294a.556.556,0,0,1,.3.914l-.926,1.037.141,1.383a.554.554,0,0,1-.775.565l-1.274-.561-1.274.561a.555.555,0,0,1-.775-.565l.141-1.383-.926-1.037a.555.555,0,0,1,.3-.914l1.357-.294Zm.146,1.231a.385.385,0,0,1,.665,0l.333.572.645.14a.385.385,0,0,1,.2.633l-.437.493.068.658a.387.387,0,0,1-.541.391l-.6-.266-.609.266a.383.383,0,0,1-.536-.391l.068-.658-.442-.493a.384.384,0,0,1,.208-.633l.645-.14Z" transform="translate(-1432.45 -60.629)" fill-rule="evenodd"/>
</svg>
