<svg xmlns="http://www.w3.org/2000/svg" width="18" height="17.989" viewBox="0 0 18 17.989">
  <path id="icon_payment" d="M650.519,64.971c-.062.333-.09.673-.181,1a5.749,5.749,0,0,1-4.272,4.225.167.167,0,0,1-.206-.073,2.02,2.02,0,0,0-1.682-.826q-.887-.006-1.773,0a.623.623,0,0,1-.431-.154,4.722,4.722,0,0,0-1.6-.888.5.5,0,0,1-.219-.156A5.791,5.791,0,1,1,650.4,63.385c.052.246.079.492.118.742v.843ZM644.195,62a1.582,1.582,0,0,0,.5,3.072.529.529,0,0,1,.518.346.517.517,0,0,1-.133.563.5.5,0,0,1-.615.077,2.13,2.13,0,0,1-.424-.332.529.529,0,0,0-.753-.052.518.518,0,0,0-.028.753,2,2,0,0,0,.822.611.156.156,0,0,1,.114.181c-.006.164-.005.328,0,.492a.526.526,0,0,0,1.052,0c0-.153.006-.308,0-.457a.2.2,0,0,1,.135-.223,1.576,1.576,0,0,0-.625-3.01.533.533,0,0,1-.531-.354.515.515,0,0,1,.143-.56.528.528,0,0,1,.636-.066,2.822,2.822,0,0,1,.327.233.527.527,0,0,0,.686-.8,2.158,2.158,0,0,0-.3-.237,1.3,1.3,0,0,1-.448-.287,1.355,1.355,0,0,1-.019-.554.526.526,0,1,0-1.052,0C644.195,61.6,644.195,61.8,644.195,62Zm-4.811,14.738c-.319-.034-.639-.062-.957-.106-.3-.041-.6-.092-.9-.15-.246-.048-.488-.113-.742-.173v-.186q0-3.065,0-6.13a.284.284,0,0,1,.157-.277,3.682,3.682,0,0,1,4.309.285,1.687,1.687,0,0,0,1.159.413c.579-.012,1.159,0,1.738,0a1.055,1.055,0,1,1,0,2.107h-3.161a.527.527,0,1,0-.017,1.052c.661,0,1.323,0,1.984,0h2.055a1.632,1.632,0,0,0,1.306-.6c.77-.9,1.547-1.789,2.321-2.683a1.02,1.02,0,0,1,1.066-.369,1,1,0,0,1,.787.8.139.139,0,0,0,.028.042v.387a3.706,3.706,0,0,1-.321.729q-1.262,1.727-2.564,3.427a3.592,3.592,0,0,1-2.134,1.347c-.141.032-.284.057-.426.084h-5.691Zm-6.464,0a.677.677,0,0,1-.392-.707c.01-2.014.005-4.028.006-6.042a.545.545,0,0,1,.635-.627,10.063,10.063,0,0,1,1.261.036,1.525,1.525,0,0,1,1.3,1.5q.014,2.142,0,4.286a1.568,1.568,0,0,1-1.251,1.517c-.039.009-.078.023-.116.035h-1.44Z" transform="translate(-632.522 -58.754)"  fill-rule="evenodd"/>
</svg>
