<svg xmlns="http://www.w3.org/2000/svg" width="18" height="17.997" viewBox="0 0 18 17.997">
  <path id="icon_home_on" d="M8.756,0h.492A2.487,2.487,0,0,1,10.5.811q3.346,3.361,6.707,6.706A2.378,2.378,0,0,1,18,8.787v.422a.339.339,0,0,0-.028.063,1.64,1.64,0,0,1-1.693,1.381h-.21v.239q0,2.539,0,5.079A1.937,1.937,0,0,1,14.048,18q-1.336,0-2.671,0c-.454,0-.648-.2-.648-.655q0-2.021,0-4.042a.887.887,0,0,0-.956-.952c-.5,0-1.008,0-1.511,0a.893.893,0,0,0-.989.99q0,2.021,0,4.042A.546.546,0,0,1,6.657,18c-.908,0-1.816,0-2.724,0a2.248,2.248,0,0,1-.5-.054,1.918,1.918,0,0,1-1.495-1.919c0-1.716,0-3.433,0-5.149v-.22c-.122,0-.22,0-.318,0A1.613,1.613,0,0,1,.229,9.828,1.649,1.649,0,0,1,.543,7.773Q4.021,4.292,7.5.811A2.5,2.5,0,0,1,8.756,0" transform="translate(0)" />
</svg>
