<svg xmlns="http://www.w3.org/2000/svg" xmlns:xlink="http://www.w3.org/1999/xlink" width="18" height="18.778" viewBox="0 0 18 18.778">
  <defs>
    <clipPath id="clip-path">
      <rect id="Rectangle_102" data-name="Rectangle 102" width="18" height="18.778" transform="translate(0 0.001)" />
    </clipPath>
  </defs>
  <g id="icon_promotions" transform="translate(0 -0.001)">
    <g id="Group_97" data-name="Group 97" transform="translate(0 0.001)" clip-path="url(#clip-path)">
      <path id="Path_104" data-name="Path 104" d="M8.744,0h.512a.217.217,0,0,0,.063.031A1.777,1.777,0,0,1,10.42.7c.235.3.479.587.711.886a.623.623,0,0,0,.727.235c.357-.1.718-.192,1.076-.291a1.782,1.782,0,0,1,2.3,1.54c.046.412.052.829.068,1.244a.635.635,0,0,0,.454.636q.542.2,1.075.412a1.793,1.793,0,0,1,.859,2.7q-.315.493-.638.984a.591.591,0,0,0,0,.7q.312.474.618.952a1.8,1.8,0,0,1-.891,2.75c-.334.131-.668.265-1.007.383a.646.646,0,0,0-.472.661c-.008.354-.027.709-.048,1.063a1.8,1.8,0,0,1-2.265,1.718c-.384-.1-.765-.2-1.146-.311a.605.605,0,0,0-.7.227,11.872,11.872,0,0,1-.765.934,3.64,3.64,0,0,1-.7.518,1.78,1.78,0,0,1-.426.143H8.744a.283.283,0,0,0-.063-.031,1.765,1.765,0,0,1-1.1-.666c-.237-.3-.48-.586-.712-.885a.624.624,0,0,0-.727-.236c-.41.116-.821.234-1.236.328a1.776,1.776,0,0,1-2.131-1.522c-.048-.43-.058-.865-.075-1.3a.639.639,0,0,0-.454-.637c-.355-.129-.706-.268-1.058-.4A1.794,1.794,0,0,1,.3,10.739c.21-.33.424-.657.639-.982a.612.612,0,0,0,0-.735C.718,8.686.5,8.35.283,8.008a1.794,1.794,0,0,1,.888-2.65c.352-.136.7-.278,1.058-.4A.647.647,0,0,0,2.7,4.293c.009-.354.028-.709.048-1.062a1.8,1.8,0,0,1,2.335-1.7c.354.093.708.184,1.059.285a.622.622,0,0,0,.727-.235A10.788,10.788,0,0,1,7.622.662a3.68,3.68,0,0,1,.7-.519A1.849,1.849,0,0,1,8.744,0M5.906,13.028a.676.676,0,0,0,.524-.257Q9.2,10,11.964,7.225a1.727,1.727,0,0,0,.137-.147.607.607,0,0,0-.3-.962.633.633,0,0,0-.673.212Q8.342,9.122,5.554,11.914a1.12,1.12,0,0,0-.144.164.609.609,0,0,0,.5.95m.647-6.94A1.226,1.226,0,1,0,6.516,8.54a1.226,1.226,0,0,0,.037-2.452m4.455,6.94A1.222,1.222,0,1,0,9.792,11.8a1.214,1.214,0,0,0,1.216,1.225"/>
    </g>
  </g>
</svg>
