<svg xmlns="http://www.w3.org/2000/svg" xmlns:xlink="http://www.w3.org/1999/xlink" width="19" height="12.014" viewBox="0 0 19 12.014">
  <defs>
    <clipPath id="clip-path">
      <rect id="Rectangle_100" data-name="Rectangle 100" width="19" height="12.014"/>
    </clipPath>
  </defs>
  <g id="icon_livecasino" transform="translate(0 -0.001)">
    <g id="Group_94" data-name="Group 94" transform="translate(0 0.001)" clip-path="url(#clip-path)">
      <path id="Path_97" data-name="Path 97" d="M1.351,0H12.666a1.691,1.691,0,0,1,1.349,1.959q0,1.117,0,2.235c0,.071.01.143.018.248.1-.084.161-.14.223-.2q1.663-1.527,3.325-3.058A.8.8,0,0,1,19,1.794q-.007,4.446,0,8.89a.8.8,0,0,1-1.418.61q-1.666-1.544-3.344-3.076c-.059-.054-.126-.1-.224-.183,0,.818.006,1.587,0,2.355A1.6,1.6,0,0,1,12.4,12.01q-5.4.007-10.792,0a1.59,1.59,0,0,1-1.6-1.6Q0,6,0,1.595A1.6,1.6,0,0,1,1.181.058C1.239.041,1.3.019,1.351,0M4.569,6.249c0,.666,0,1.333,0,2a.778.778,0,0,0,1.22.714q1.8-.994,3.6-2a.782.782,0,0,0,.006-1.439q-1.795-1.009-3.6-2a.779.779,0,0,0-1.227.729c0,.666,0,1.333,0,2" transform="translate(0)" />
      <path id="Path_98" data-name="Path 98" d="M9.009,7.606,7.672,8.35V6.862l1.337.744" transform="translate(-1.527 -1.366)" />
    </g>
  </g>
</svg>
