<svg id="icon_alarm" xmlns="http://www.w3.org/2000/svg" width="18.508" height="22" viewBox="0 0 18.508 22">
  <path id="alarm" d="M955.272,78.035h-8.344a.823.823,0,0,1-.875-.347.592.592,0,0,1,.353-.744,8.983,8.983,0,0,0,1.7-1.606,8.215,8.215,0,0,0,1.606-3.376,18.632,18.632,0,0,0,.338-3.391,3.835,3.835,0,0,1,1.526-2.815,5.614,5.614,0,0,1,3.658-1.263,5.5,5.5,0,0,1,4.095,1.637,3.981,3.981,0,0,1,1.188,2.846,12.906,12.906,0,0,0,.477,3.588,8.2,8.2,0,0,0,3.043,4.31,3.924,3.924,0,0,1,.324.254.507.507,0,0,1-.363.884,2.038,2.038,0,0,1-.32.02H955.27Zm-4.349,1.985h8.3a4.669,4.669,0,0,1-4.021,2.4,4.722,4.722,0,0,1-4.281-2.4Zm.952-16.734a3.35,3.35,0,0,1,2.816-2.831,3.587,3.587,0,0,1,2.773.8,3.33,3.33,0,0,1,1.094,1.961,7.97,7.97,0,0,0-6.683.074Z" transform="translate(-946.022 -60.423)" fill-rule="evenodd"/>
</svg>
