<svg xmlns="http://www.w3.org/2000/svg" width="14.069" height="17" viewBox="0 0 14.069 17">
  <path id="icon_tutorial" d="M1344.172,62H1355.9a1.172,1.172,0,0,1,1.172,1.172v12.9c0,.645-2.286,2.931-2.931,2.931h-9.966A1.172,1.172,0,0,1,1343,77.828V63.172A1.172,1.172,0,0,1,1344.172,62Zm9.157,13.75a.293.293,0,0,1,.352-.366l2.274.124a.293.293,0,0,1,.141.488l-2.046,2.122a.293.293,0,0,1-.492-.123Zm-2.779-.193h-.621l-.217-.025a5.177,5.177,0,0,1-2.409-.872,5.262,5.262,0,0,1-2.3-3.51c-.035-.2-.053-.4-.082-.594v-.623c.024-.176.041-.356.071-.533a5.347,5.347,0,0,1,5.774-4.439,4.983,4.983,0,0,1,2.779,1.142,5.2,5.2,0,0,1,1.975,4.666,4.911,4.911,0,0,1-.868,2.411,5.26,5.26,0,0,1-3.511,2.294C1350.949,75.511,1350.75,75.53,1350.55,75.557ZM1351,70.8V69.5a.635.635,0,0,0-.868-.511.539.539,0,0,0-.422.528v1.708c0,.293-.006,1.419,0,1.713a.542.542,0,0,0,.422.511.635.635,0,0,0,.868-.511Zm0-3.224a.645.645,0,1,0-.645.644.653.653,0,0,0,.645-.641Zm-.51,6.864h-.492l-.17-.02a4.089,4.089,0,0,1-1.905-.689,4.166,4.166,0,0,1-1.817-2.775c-.029-.155-.041-.313-.064-.469V70c.018-.141.029-.282.053-.421a4.229,4.229,0,0,1,4.567-3.509,3.957,3.957,0,0,1,2.2.9,4.113,4.113,0,0,1,1.559,3.689,3.871,3.871,0,0,1-.686,1.906,4.154,4.154,0,0,1-2.773,1.814c-.158.031-.317.046-.469.067Z" transform="translate(-1343 -62)"  fill-rule="evenodd"/>
</svg>
