<svg id="icon_ac_user" xmlns="http://www.w3.org/2000/svg" width="15.21" height="18.202" viewBox="0 0 15.21 18.202">
  <path id="user" d="M43.807,76.2c-.207-.042-.417-.073-.62-.127a2.821,2.821,0,0,1-2.178-2.693,9.461,9.461,0,0,1,.633-4.06,3.741,3.741,0,0,1,1.687-2.011,3.363,3.363,0,0,1,1.658-.392,1.3,1.3,0,0,1,.545.185c.27.145.521.326.783.485a4.1,4.1,0,0,0,4.575,0c.212-.127.428-.253.627-.4a1.533,1.533,0,0,1,1.2-.241A3.376,3.376,0,0,1,55.3,68.768a7.434,7.434,0,0,1,.83,2.914,14.245,14.245,0,0,1,.071,1.58,2.891,2.891,0,0,1-2.693,2.907.67.67,0,0,0-.116.032Zm9.114-13.862A4.434,4.434,0,1,1,48.488,58a4.387,4.387,0,0,1,4.434,4.34Z" transform="translate(-40.989 -58)"  fill-rule="evenodd"/>
</svg>
