<svg xmlns="http://www.w3.org/2000/svg" width="30" height="30" viewBox="0 0 30 30">
  <g id="mobile_print_icon" transform="translate(-76 -753)">
    <circle id="타원_57" data-name="타원 57" cx="15" cy="15" r="15" transform="translate(76 753)" fill="#2b284a"/>
    <g id="Icon_ionic-ios-print" data-name="Icon ionic-ios-print" transform="translate(81.25 758.25)">
      <path id="빼기_4" data-name="빼기 4" d="M11.25,10.874H.748A.75.75,0,0,1,0,10.124V.75A.75.75,0,0,1,.748,0h10.5A.75.75,0,0,1,12,.75v9.374A.75.75,0,0,1,11.25,10.874ZM1.874,7.123a.751.751,0,0,0,0,1.5h8.25a.751.751,0,0,0,0-1.5Zm0-2.625a.751.751,0,0,0,0,1.5h8.25a.751.751,0,0,0,0-1.5Zm0-2.624a.749.749,0,1,0,0,1.5h8.25a.749.749,0,0,0,0-1.5Z" transform="translate(3.751 8.626)" fill="#fff"/>
      <g id="그룹_2637" data-name="그룹 2637">
        <path id="패스_461" data-name="패스 461" d="M20.625,3.375h-12a.752.752,0,0,0-.75.75v.938a.188.188,0,0,0,.187.187H21.187a.188.188,0,0,0,.188-.187V4.125A.752.752,0,0,0,20.625,3.375Z" transform="translate(-4.875 -3.375)"/>
        <path id="패스_462" data-name="패스 462" d="M21.4,7.875H4.9A1.5,1.5,0,0,0,3.375,9.342v8.175A1.54,1.54,0,0,0,4.9,19.031h.727A.376.376,0,0,0,6,18.656V13.688a1.31,1.31,0,0,1,1.313-1.312H18.938a1.31,1.31,0,0,1,1.313,1.313v4.969a.376.376,0,0,0,.375.375H21.4a1.5,1.5,0,0,0,1.477-1.514V9.342A1.46,1.46,0,0,0,21.4,7.875Z" transform="translate(-3.375 -4.875)" fill="#fff"/>
      </g>
    </g>
  </g>
</svg>
