<svg id="icon_ac_discount" xmlns="http://www.w3.org/2000/svg" width="18.202" height="18.181" viewBox="0 0 18.202 18.181">
  <path id="discount" d="M549.522,66.717a.7.7,0,0,1-.749.464q-8.358-.009-16.715,0a.619.619,0,0,1-.727-.719V64.84a1.177,1.177,0,0,1,1.22-1.221h1.261a.943.943,0,0,0-.042-.119,2.341,2.341,0,0,1,3.581-2.867c.549.469,1.074.966,1.61,1.449l.149.132a1.792,1.792,0,0,1,2.631,0c.39-.355.773-.7,1.161-1.049a9.735,9.735,0,0,1,.766-.659,2.338,2.338,0,0,1,3.418,2.979c-.018.035-.033.071-.063.134h1.169a1.876,1.876,0,0,1,.388.025,1.164,1.164,0,0,1,.894.825c.016.05.031.1.047.151v2.1Zm-10.855-3.14a.632.632,0,0,0-.1-.242q-.958-.885-1.931-1.753a1.13,1.13,0,0,0-1.379-.139,1.168,1.168,0,0,0-.546,1.248,1.116,1.116,0,0,0,1.03.907c.957.031,1.915.009,2.873.009a.285.285,0,0,0,.051-.031Zm3.5-.008.06.043c.035,0,.071.006.1.006h2.574a1.584,1.584,0,0,0,.284-.029,1.194,1.194,0,0,0,.948-.9,1.171,1.171,0,0,0-2-1.043q-.911.818-1.812,1.648A1.059,1.059,0,0,0,542.169,63.569Zm-8.494,14.7a2.872,2.872,0,0,1-.537-.167,1.166,1.166,0,0,1-.624-1.114q0-1.5,0-3V68.37h6.717c0,.062.01.124.01.187v9.521a1.611,1.611,0,0,1-.023.191h-5.546Zm7.959,0a1.892,1.892,0,0,1-.023-.209V68.37h6.728v8.545a1.193,1.193,0,0,1-1.112,1.333.265.265,0,0,0-.049.019h-5.546Z" transform="translate(-531.32 -60.089)" fill-rule="evenodd"/>
</svg>
