<svg id="icon_ac_setting" xmlns="http://www.w3.org/2000/svg" width="18.202" height="17.265" viewBox="0 0 18.202 17.265">
  <path id="setting" d="M693.365,58.3a1.246,1.246,0,0,1,.9.476,2.372,2.372,0,0,0,3.625.059,1.161,1.161,0,0,1,1.546-.37,8.888,8.888,0,0,1,2.436,1.439,1.121,1.121,0,0,1,.367,1.31A2.367,2.367,0,0,0,704.1,64.4a1.12,1.12,0,0,1,.973.991,8.207,8.207,0,0,1-.019,3.09,1.13,1.13,0,0,1-.967.913,2.361,2.361,0,0,0-1.895,3.243,1.113,1.113,0,0,1-.347,1.329,9.062,9.062,0,0,1-2.365,1.414,1.093,1.093,0,0,1-1.339-.356,2.378,2.378,0,0,0-3.852.053,1.1,1.1,0,0,1-1.363.388,9.138,9.138,0,0,1-2.561-1.485,1.113,1.113,0,0,1-.3-1.383,2.363,2.363,0,0,0-1.406-3.175,3.882,3.882,0,0,0-.591-.129,1.127,1.127,0,0,1-.945-.953,8.867,8.867,0,0,1,.042-3.037,1.142,1.142,0,0,1,1.032-.98,2.361,2.361,0,0,0,1.95-3.222,1.121,1.121,0,0,1,.386-1.351,8.806,8.806,0,0,1,2.421-1.351,3.529,3.529,0,0,1,.419-.1Zm5.774,8.653a3.037,3.037,0,1,0-.912,2.15,3.034,3.034,0,0,0,.912-2.15Z" transform="translate(-687.004 -58.3)"  fill-rule="evenodd"/>
</svg>
