<svg id="icon_telegram" xmlns="http://www.w3.org/2000/svg" width="47.933" height="36.622" viewBox="0 0 47.933 36.622">
  <path id="telegram" d="M896.948,79.005a3.3,3.3,0,0,1,2.3-2.095Q920.689,69.2,942.1,61.429a1.982,1.982,0,0,1,2.229.222,1.665,1.665,0,0,1,.439,1.839,4.151,4.151,0,0,1-.318.617q-9.765,16.128-19.54,32.247a2.506,2.506,0,0,1-3.9.859q-2.187-1.484-4.371-2.977a.9.9,0,0,0-.114-.055c-1.506,1-3.029,2-4.544,3.013a2.194,2.194,0,0,1-1.9.392,2.018,2.018,0,0,1-1.511-2.018c-.02-2.418-.011-4.839,0-7.259a2.188,2.188,0,0,1,1.011-1.8q4.732-3.518,9.454-7.052a.944.944,0,0,0,.328-.365c-.132.065-.268.126-.4.2-4.068,2.144-8.143,4.274-12.2,6.443a2.44,2.44,0,0,1-2.829-.154c-1.677-1.193-3.391-2.349-5.1-3.482a3.943,3.943,0,0,1-1.887-2.146v-.94Z" transform="translate(-896.948 -61.185)" fill-rule="evenodd"/>
</svg>
