<svg xmlns="http://www.w3.org/2000/svg" width="62.232" height="54.949" viewBox="0 0 62.232 54.949">
  <g id="icon_capital" transform="translate(-100 -1612.93)">
    <path id="_50_copy_3" data-name="~50% copy 3" d="M90.023,91.168h15.359v3.616H90.023Zm-.432-9.5h15.359v3.616H89.592Zm-2.159-4.317h15.359v3.616H87.433Zm15.359,12.682H87.433V86.419h15.359Zm-.029,7.739a11.411,11.411,0,0,0-2.672,1.709H87.4V95.867h15.36Zm-6.671,10.389c0,.122.015.24.019.362H86.8v-3.616h9.768a11.419,11.419,0,0,0-.477,3.254Zm-21.405-8.48H66.249V113.6H55.409V63.337H85.767V113.6H74.686V99.682ZM64.444,69.846H60.83v3.616h3.614Zm0,10.125H60.83v3.616h3.614Zm0,10.486H60.83v3.616h3.614V90.456ZM72.4,69.846H68.781v3.616H72.4V69.846Zm0,10.125H68.781v3.616H72.4V79.97Zm0,10.486H68.781v3.616H72.4V90.456Zm4.337,3.616h3.614V90.456H76.733v3.616Zm0-10.486h3.614V79.97H76.733v3.616Zm0-10.124h3.614V69.846H76.733v3.616Zm11.876,26.746H99.321a11.441,11.441,0,0,0-2.372,3.616H88.608Zm8.5,12.655H87.7v-3.616h8.442A11.352,11.352,0,0,0,97.111,112.863Z" transform="translate(44.591 1549.593)" fill="#f5f5f5" fill-rule="evenodd"/>
    <path id="_50_copy_3-2" data-name="~50% copy 3" d="M107.522,118.287a10.124,10.124,0,1,1,10.119-10.122,10.124,10.124,0,0,1-10.119,10.122Zm0-18.8a8.678,8.678,0,1,0,8.674,8.676,8.678,8.678,0,0,0-8.674-8.676Zm0,16.271a7.593,7.593,0,1,1,7.589-7.592,7.593,7.593,0,0,1-7.589,7.592Zm.094-10.725a2.175,2.175,0,0,1,1.463.688l.849-.97a3.174,3.174,0,0,0-1.9-1.061V102.38H106.9v1.331a2.255,2.255,0,0,0-1.943,2.358,2.037,2.037,0,0,0,.19.886,1.931,1.931,0,0,0,.5.66,4.909,4.909,0,0,0,.681.479q.374.22.743.406t.676.378a1.774,1.774,0,0,1,.5.452.955.955,0,0,1,.19.575q0,1.016-1.161,1.016a3.083,3.083,0,0,1-1.887-.777l-.748,1.14a3.961,3.961,0,0,0,2.267,1v1.3h1.128V112.24a2.346,2.346,0,0,0,2.021-2.448,2.266,2.266,0,0,0-.19-.948,2.015,2.015,0,0,0-.5-.688,4.418,4.418,0,0,0-.681-.491q-.374-.22-.748-.4t-.681-.35a1.753,1.753,0,0,1-.5-.406.8.8,0,0,1-.19-.525Q106.566,105.031,107.615,105.031Z" transform="translate(44.591 1549.593)" fill="#f5f5f5" fill-rule="evenodd"/>
  </g>
</svg>
