<svg id="icon_sloton" xmlns="http://www.w3.org/2000/svg" width="22" height="22.001" viewBox="0 0 22 22.001">
  <path id="slot" d="M1225.54,83.314h-19.08a5.2,5.2,0,0,1-.714-.311,1.747,1.747,0,0,1-.745-1.15V68.361a1.194,1.194,0,0,0,.047-.16,1.7,1.7,0,0,1,1.63-1.3q9.319-.011,18.653,0a1.684,1.684,0,0,1,1.592,1.215c.031.082.054.162.078.242V81.853l-.047.138a1.681,1.681,0,0,1-.955,1.165,4.421,4.421,0,0,1-.458.158Zm-9.536-5.2h7.6a.672.672,0,0,0,.776-.777V69.869a.675.675,0,0,0-.792-.777h-15.182a.673.673,0,0,0-.784.783v7.432a.68.68,0,0,0,.792.81H1216Zm-.008,1.8h-6.438c-.443,0-.877-.005-1.312,0a.638.638,0,0,0-.621.594.647.647,0,0,0,.513.675,1.319,1.319,0,0,0,.279.016h15.353a.662.662,0,0,0,.613-.609.655.655,0,0,0-.528-.666,1.329,1.329,0,0,0-.256-.013H1216Zm3.611-18.606a9.333,9.333,0,0,1,1.025.221,5.126,5.126,0,0,1,3.65,3.937.174.174,0,0,1,.008.063v.06h-16.618a9.466,9.466,0,0,1,.357-1.1,5.154,5.154,0,0,1,4.225-3.139,1.267,1.267,0,0,0,.14-.04h7.214Zm-6.826,2.365a.645.645,0,1,0-.645.643.66.66,0,0,0,.645-.643Zm2.578,0a.653.653,0,0,0-.645-.642.644.644,0,1,0,.645.639Zm2.578,0a.656.656,0,0,0-.645-.641.644.644,0,1,0,.645.636Zm1.941.647a.644.644,0,1,0-.652-.628.654.654,0,0,0,.652.624ZM1208.922,70.4h3.844v6.428h-3.844V70.393Zm1.9,2.733c-.039.082-.062.139-.085.193-.218.4-.427.794-.637,1.191-.1.2-.047.3.171.311a2.192,2.192,0,0,0,.4,0,.305.305,0,0,0,.21-.114c.311-.572.606-1.15.9-1.732a.451.451,0,0,0-.326-.566c-.458-.006-.908,0-1.367,0a.2.2,0,0,0-.233.223,2.317,2.317,0,0,1,0,.233.224.224,0,0,0,.272.264c.225-.006.443,0,.691,0Zm3.261-2.733h3.836v6.419h-3.836V70.393Zm1.9,2.733c-.047.091-.07.148-.1.2-.21.384-.411.767-.614,1.155-.132.242-.07.337.21.343a1.469,1.469,0,0,0,.342-.007.376.376,0,0,0,.233-.141c.3-.559.6-1.125.877-1.693a.439.439,0,0,0-.365-.579c-.427,0-.846,0-1.266,0a.233.233,0,0,0-.287.277,1.6,1.6,0,0,1,0,.193.218.218,0,0,0,.264.254c.218-.013.443-.01.707-.01Zm3.254-2.731h3.836v6.418h-3.836V70.394Zm1.9,2.731c-.047.088-.07.139-.093.188-.21.4-.427.794-.637,1.191-.109.208-.047.311.187.32a2.076,2.076,0,0,0,.4-.006.294.294,0,0,0,.2-.126q.454-.85.885-1.708a.44.44,0,0,0-.373-.575H1220.5c-.287,0-.326.038-.326.324v.136a.214.214,0,0,0,.248.249l.723,0Z" transform="translate(-1205 -61.313)"  fill-rule="evenodd"/>
</svg>
