<svg id="icon_upload" xmlns="http://www.w3.org/2000/svg" width="48.303" height="35.561" viewBox="0 0 48.303 35.561">
  <path id="upload" d="M135.548,207.3c-2.051.187-4.13.1-6.2.09-7.492-.03-19,.016-15.627.016a19.263,19.263,0,0,1-5.454-.465,12.91,12.91,0,0,1,1.864-25.26.51.51,0,0,0,.476-.464c1.669-5.162,5.171-8.3,10.512-9.189a12.793,12.793,0,0,1,14.256,9.14.644.644,0,0,0,.633.542,12.893,12.893,0,0,1-.463,25.588Zm-4.037-17.362-6.526-6.525a2.17,2.17,0,0,0-3.067,0l-.133.134a2.141,2.141,0,0,0-.5.8l-6.071,6.071a2.17,2.17,0,0,0,0,3.067l.222.222a2.169,2.169,0,0,0,3.068,0l2.869-2.87v9.594a2.169,2.169,0,0,0,2.169,2.169h.181a2.169,2.169,0,0,0,2.169-2.169v-9.707l2.416,2.416a2.17,2.17,0,0,0,3.067,0l.134-.134a2.169,2.169,0,0,0,0-3.067Z" transform="translate(-98.792 -171.881)" fill-rule="evenodd"/>
</svg>
