<svg xmlns="http://www.w3.org/2000/svg" width="54" height="69.819" viewBox="0 0 54 69.819">
  <g id="icon_customer" transform="translate(-100 -1599)">
    <path id="jackpotslot_copy" data-name="jackpotslot copy" d="M101.429,102.6a10.862,10.862,0,1,1,11.092-10.86A10.978,10.978,0,0,1,101.429,102.6Zm-12.911,1.574a8.414,8.414,0,0,1,4.15-.982,3.238,3.238,0,0,1,1.361.463c.676.363,1.3.814,1.959,1.215a10.262,10.262,0,0,0,11.448-.009c.53-.323,1.069-.635,1.569-1a3.836,3.836,0,0,1,3-.6,8.446,8.446,0,0,1,6.459,4.576,18.611,18.611,0,0,1,2.077,7.3,35.728,35.728,0,0,1,.174,3.943,7.235,7.235,0,0,1-6.738,7.275,1.718,1.718,0,0,0-.292.082H89.715c-.518-.107-1.045-.184-1.552-.325a7.068,7.068,0,0,1-5.453-6.743,23.673,23.673,0,0,1,1.579-10.16A9.375,9.375,0,0,1,88.519,104.175Z" transform="translate(26.268 1542.388)" fill="#f5f5f5" fill-rule="evenodd"/>
    <path id="jackpotslot_copy-2" data-name="jackpotslot copy" d="M127.645,72.5l-3.589,3.48.924,4.983a.287.287,0,0,1-.424.3l-4.287-2.439-4.287,2.439a.287.287,0,0,1-.424-.3l.924-4.983L112.89,72.5a.287.287,0,0,1,.163-.49l4.874-.632,2.08-4.576a.287.287,0,0,1,.523,0l2.08,4.576,4.873.632a.287.287,0,0,1,.163.49Zm-21.73-4.2,1.154,6.228a.359.359,0,0,1-.53.377l-5.357-3.049L95.821,74.9a.359.359,0,0,1-.53-.377L96.444,68.3l-4.486-4.351a.359.359,0,0,1,.2-.613l6.092-.791,2.6-5.72a.359.359,0,0,1,.653,0l2.6,5.72,6.092.791a.359.359,0,0,1,.2.613ZM84.986,75.981l.924,4.983a.287.287,0,0,1-.424.3L81.2,78.827l-4.287,2.439a.287.287,0,0,1-.424-.3l.924-4.983L73.82,72.5a.287.287,0,0,1,.163-.49l4.874-.632,2.08-4.576a.287.287,0,0,1,.523,0l2.08,4.576,4.874.632a.287.287,0,0,1,.162.49Z" transform="translate(26.268 1542.388)" fill="#f5f5f5" fill-rule="evenodd"/>
  </g>
</svg>
