<svg id="icon_skype" xmlns="http://www.w3.org/2000/svg" width="47.933" height="47.93" viewBox="0 0 47.933 47.93">
  <path id="skype" d="M332.362,106.12h-3a.576.576,0,0,0-.2-.131,12.386,12.386,0,0,1-4.473-1.5,1.524,1.524,0,0,0-.856-.184c-.97.091-1.93.3-2.9.353a22.625,22.625,0,0,1-17.173-6.384,21.527,21.527,0,0,1-3.739-4.793,22.03,22.03,0,0,1-1.917-4.333,23.111,23.111,0,0,1-.871-10.338,2.4,2.4,0,0,0-.029-1.834,11.051,11.051,0,0,1-1.438-3.909c-.056-.284-.149-.562-.224-.842V69.312a.421.421,0,0,0,.128-.16,11.75,11.75,0,0,1,1.423-4.4A12.655,12.655,0,0,1,314.3,59.766a1.659,1.659,0,0,0,.9.212c.986-.088,1.964-.3,2.949-.355a22.438,22.438,0,0,1,5.752.391,22.846,22.846,0,0,1,6.32,2.281,22.063,22.063,0,0,1,5.148,3.8,29.137,29.137,0,0,1,2.428,2.876,20.183,20.183,0,0,1,3.48,7.255,36.5,36.5,0,0,1,.687,4.114,17.178,17.178,0,0,1-.131,5.013,2.828,2.828,0,0,0,.335,2.491,1.19,1.19,0,0,1,.147.292,12.907,12.907,0,0,1,1.075,3.881,13.22,13.22,0,0,1-.12,3.849,12.462,12.462,0,0,1-4.571,7.52,12,12,0,0,1-5.181,2.428C333.128,105.891,332.747,106.016,332.362,106.12ZM310.61,76.084c-.177,3.563,1.264,6.632,9.447,8.057,8.4,1.463,3.834,6.33.276,6.391-1.563.027-3.774.51-5.557-3.334a3.119,3.119,0,0,0-.832-1.39c-2.128-2.013-4.967,1.029-3.576,3.138.684,1.035,2.077,5.258,9.688,5.2,8.113-.064,9.793-4.916,9.723-7.509-.107-4.034-3.093-5.146-5.557-6.113-2.812-1.1-8.672-1.415-8.891-3.334s1.471-3.2,4.446-3.056,3.369,1.152,3.889,1.944,1.171,3.045,3.89,1.944c2.067-.837.991-3.59-.278-5a10.98,10.98,0,0,0-7.209-2.63C315.785,70.3,310.789,72.475,310.61,76.084Z" transform="translate(-295.544 -58.189)" fill-rule="evenodd"/>
</svg>
