<svg xmlns="http://www.w3.org/2000/svg" xmlns:xlink="http://www.w3.org/1999/xlink" width="18" height="18" viewBox="0 0 18 18">
  <defs>
    <clipPath id="clip-path">
      <path id="Path_349" data-name="Path 349" d="M0,0H18V18H0Z" />
    </clipPath>
  </defs>
  <g id="icon_slots" transform="translate(0 1)">
    <g id="Group_2" data-name="Group 2" transform="translate(0 -1)" clip-path="url(#clip-path)">
      <path id="Path_99" data-name="Path 99" d="M16.8,17.237H1.2a4.4,4.4,0,0,1-.586-.254A1.45,1.45,0,0,1,0,16.042V5c.014-.043.03-.086.041-.131A1.389,1.389,0,0,1,1.369,3.813Q9,3.8,16.632,3.813a1.377,1.377,0,0,1,1.3.994c.02.067.042.132.064.2V16.042c-.013.038-.028.076-.038.113a1.378,1.378,0,0,1-.782.95,3.743,3.743,0,0,1-.374.132M9,12.987h6.221a.55.55,0,0,0,.634-.632V6.238c0-.442-.2-.635-.647-.635H2.786c-.446,0-.642.194-.642.641v6.08c0,.473.185.662.654.662ZM9,14.46H3.727c-.358,0-.715,0-1.072,0a.524.524,0,0,0-.51.486.53.53,0,0,0,.419.552,1.1,1.1,0,0,0,.228.013h12.42c.047,0,.094,0,.14,0a.526.526,0,0,0,.073-1.043,1.1,1.1,0,0,0-.209-.011Z" transform="translate(0 0.762)" />
      <path id="Path_100" data-name="Path 100" d="M11.589,0a8.186,8.186,0,0,1,.838.181A4.194,4.194,0,0,1,15.411,3.4a.272.272,0,0,1,.008.052c0,.012,0,.024,0,.049H1.819a8.361,8.361,0,0,1,.294-.9A4.221,4.221,0,0,1,5.568.032,1.053,1.053,0,0,0,5.684,0ZM6,1.934a.527.527,0,1,0-.523.526A.534.534,0,0,0,6,1.934m2.11,0a.527.527,0,1,0-.522.528.534.534,0,0,0,.522-.528m2.108,0A.527.527,0,1,0,9.7,2.46a.532.532,0,0,0,.518-.529m1.591.529a.527.527,0,1,0-.535-.514.532.532,0,0,0,.535.514" transform="translate(0.364)" />
      <path id="Path_101" data-name="Path 101" d="M5.816,11.448H2.674V6.19H5.816ZM4.23,8.426c-.03.067-.05.114-.073.158-.173.325-.349.649-.52.974-.084.163-.036.247.142.257a1.807,1.807,0,0,0,.332,0,.251.251,0,0,0,.169-.094q.378-.7.736-1.417a.37.37,0,0,0-.263-.463c-.374,0-.749,0-1.123,0a.164.164,0,0,0-.186.182c0,.065,0,.13,0,.193-.008.16.071.221.224.216.18,0,.361,0,.563,0" transform="translate(0.535 1.238)" />
      <path id="Path_102" data-name="Path 102" d="M6.192,6.19H9.335v5.251H6.192ZM7.748,8.426c-.035.074-.056.121-.08.166-.168.314-.337.628-.5.944-.1.2-.055.276.173.281a1.217,1.217,0,0,0,.281-.006.3.3,0,0,0,.19-.115c.247-.457.487-.92.721-1.385a.361.361,0,0,0-.3-.474c-.344,0-.69,0-1.036,0-.164,0-.241.061-.232.227,0,.053,0,.106,0,.158-.006.15.068.211.215.208.18,0,.361,0,.575,0" transform="translate(1.238 1.238)" />
      <path id="Path_103" data-name="Path 103" d="M9.707,6.191h3.144v5.25H9.707Zm1.558,2.234c-.035.072-.053.114-.074.154-.174.325-.349.649-.521.974-.089.17-.038.254.151.262a1.719,1.719,0,0,0,.334,0,.247.247,0,0,0,.162-.1q.373-.695.728-1.4a.36.36,0,0,0-.307-.47c-.334,0-.668,0-1,0-.232,0-.262.031-.263.265,0,.041,0,.082,0,.122a.174.174,0,0,0,.2.2c.187,0,.374,0,.59,0" transform="translate(1.941 1.238)" />
    </g>
  </g>
</svg>
