<svg xmlns="http://www.w3.org/2000/svg" width="16" height="16" viewBox="0 0 16 16">
  <path id="icon_aboutbitcoin" d="M244,58.25a8,8,0,1,1-8,8A8,8,0,0,1,244,58.25Zm2.623,11.062a3.267,3.267,0,0,1-1.506.547V70.6a.449.449,0,0,1-.449.449h-.215A.449.449,0,0,1,244,70.6v-.692h-.557V70.6a.449.449,0,0,1-.449.449h-.215a.449.449,0,0,1-.449-.449v-.7a.612.612,0,0,1-.269-.1h-.9a.5.5,0,0,1-.5-.5v-.26a.5.5,0,0,1,.5-.5h.615V63.426h-.615a.5.5,0,0,1-.5-.5V62.67a.5.5,0,0,1,.5-.5h.807a.591.591,0,0,1,.364-.165V61.37a.449.449,0,0,1,.449-.449H243a.449.449,0,0,1,.449.449V62H244V61.37a.449.449,0,0,1,.449-.449h.215a.449.449,0,0,1,.449.449v.7a3.1,3.1,0,0,1,1.159.394,1.622,1.622,0,0,1,.744,1.484,1.925,1.925,0,0,1-.3,1.043,1.53,1.53,0,0,1-.8.656.038.038,0,0,0-.021.037.021.021,0,0,0,.021.026,2.011,2.011,0,0,1,1.117.635,1.828,1.828,0,0,1,.415,1.242,1.99,1.99,0,0,1-.827,1.726Zm-1.237-6.082a2.34,2.34,0,0,0-1.258-.269h-1.017a.074.074,0,0,0-.084.084v2.171a.074.074,0,0,0,.084.084h.975q1.709,0,1.709-1.2A.968.968,0,0,0,245.387,63.231Zm-1.1,3.014h-1.174a.07.07,0,0,0-.084.073v2.528a.074.074,0,0,0,.084.084h1.174q1.94,0,1.94-1.405Q246.225,66.246,244.285,66.245Z" transform="translate(-236 -58.25)" fill-rule="evenodd"/>
</svg>
