<svg id="icon_ac_charge" xmlns="http://www.w3.org/2000/svg" width="18.202" height="18.202" viewBox="0 0 18.202 18.202">
  <path id="charge" d="M193.1,58.167a9.1,9.1,0,1,1-9.1,9.1,9.1,9.1,0,0,1,9.1-9.1Zm.8,4.435a.1.1,0,0,1-.084-.107v-.787a.488.488,0,0,0-.976,0v.8a.093.093,0,0,1-.084.107,2.4,2.4,0,0,0-1.418.8,2.318,2.318,0,0,0-.525,1.543,2.079,2.079,0,0,0,.753,1.646,5.125,5.125,0,0,0,.732.5q.4.226.8.427a6.683,6.683,0,0,1,.732.423,1.92,1.92,0,0,1,.536.536,1.281,1.281,0,0,1,.208.721,1.2,1.2,0,0,1-.358.935,1.5,1.5,0,0,1-1.048.328,2.9,2.9,0,0,1-1.609-.536.549.549,0,0,0-.31-.1.455.455,0,0,0-.107.012.488.488,0,0,0-.358.226.594.594,0,0,0-.107.345v.107a.556.556,0,0,0,.25.381,4.379,4.379,0,0,0,1.823.691.079.079,0,0,1,.084.1v.774a.488.488,0,0,0,.976,0v-.808a.093.093,0,0,1,.084-.107,2.5,2.5,0,0,0,1.5-.84,2.451,2.451,0,0,0,.536-1.614,2.527,2.527,0,0,0-.161-.915,1.934,1.934,0,0,0-.427-.685,4.443,4.443,0,0,0-.6-.5,4.285,4.285,0,0,0-.691-.394q-.358-.161-.7-.345t-.6-.358a1.4,1.4,0,0,1-.423-.427,1.063,1.063,0,0,1-.161-.578,1.123,1.123,0,0,1,.34-.864,1.3,1.3,0,0,1,.923-.316,1.976,1.976,0,0,1,1.192.381.584.584,0,0,0,.37.131h.036a.513.513,0,0,0,.381-.179.545.545,0,0,0,.154-.381.5.5,0,0,0-.19-.405,2.919,2.919,0,0,0-1.478-.667h0Z" transform="translate(-184 -58.167)" fill-rule="evenodd"/>
</svg>
