<svg id="icon_info" xmlns="http://www.w3.org/2000/svg" width="17" height="15.506" viewBox="0 0 17 15.506">
  <path id="info_2" d="M151.117,114.237a6.8,6.8,0,0,1,2.458-3.992,8.847,8.847,0,0,1,4.586-1.955,9.53,9.53,0,0,1,5.993,1.091,7.428,7.428,0,0,1,3.294,3.472,6.032,6.032,0,0,1,.522,1.99,1.135,1.135,0,0,0,.03.144v.895c-.031.2-.06.39-.093.584a6.521,6.521,0,0,1-1.876,3.577c-.4.4-.854.748-1.3,1.131l.216.261c.368.442.74.879,1.1,1.325a.561.561,0,0,1-.356.933.786.786,0,0,1-.308-.039c-1.314-.365-2.626-.736-3.942-1.094a1.462,1.462,0,0,0-.553,0,9.474,9.474,0,0,1-6.678-1.476,6.935,6.935,0,0,1-2.96-3.9c-.109-.374-.15-.767-.223-1.151-.009-.049-.022-.095-.032-.142v-.895C151.039,114.738,151.068,114.486,151.117,114.237Zm9.121,1.671V115.7c0-.386,0-.772,0-1.158a.666.666,0,0,0-.912-.54.571.571,0,0,0-.447.557v3.82a.572.572,0,0,0,.446.54.666.666,0,0,0,.912-.54C160.242,117.918,160.239,116.366,160.239,115.909Zm0-3.393a.679.679,0,1,0-.675.678.679.679,0,0,0,.675-.678Z" transform="translate(-151.001 -108.189)" fill-rule="evenodd"/>
</svg>
