<svg xmlns="http://www.w3.org/2000/svg" width="13.583" height="17" viewBox="0 0 13.583 17">
  <path id="icon_order" d="M481.238,74.976h-.248a3.41,3.41,0,0,1-.375-.266c-.464-.425-.917-.861-1.38-1.286a.643.643,0,0,1-.223-.5q0-7.182,0-14.365a.53.53,0,0,1,.614-.57h12.348a.53.53,0,0,1,.617.572q0,7.183,0,14.365a.641.641,0,0,1-.221.5c-.458.422-.906.854-1.367,1.275a3.671,3.671,0,0,1-.388.277h-.247a4.055,4.055,0,0,1-.385-.278c-.353-.321-.7-.65-1.054-.984-.343.323-.671.639-1.008.945-.129.117-.279.212-.419.317h-.248c-.16-.117-.332-.223-.478-.353-.327-.292-.641-.6-.966-.9-.057.048-.1.083-.14.122-.312.292-.62.589-.939.875a3.306,3.306,0,0,1-.379.259H484.1c-.132-.1-.272-.186-.394-.293-.239-.212-.47-.433-.7-.654-.109-.1-.207-.219-.316-.336-.382.36-.722.688-1.072,1.007A3.983,3.983,0,0,1,481.238,74.976Zm4.557-3.693h2.4c.165,0,.33.006.494-.007a.494.494,0,0,0,.476-.536.532.532,0,0,0-.609-.453h-5.517a1.1,1.1,0,0,0-.175.012.5.5,0,0,0-.436.491.517.517,0,0,0,.586.492c.926,0,1.85,0,2.776,0Zm.51-10.1a.073.073,0,0,1-.068-.072v-.472a.374.374,0,0,0-.124-.283.425.425,0,0,0-.3-.113.442.442,0,0,0-.307.113.368.368,0,0,0-.128.283v.488a.07.07,0,0,1-.06.072,1.818,1.818,0,0,0-1.044.572,1.591,1.591,0,0,0-.379,1.084,1.373,1.373,0,0,0,.113.566,1.323,1.323,0,0,0,.3.428,3.068,3.068,0,0,0,.422.328,3.5,3.5,0,0,0,.491.268q.252.113.49.236a4.814,4.814,0,0,1,.422.244,1.054,1.054,0,0,1,.3.288.623.623,0,0,1,.113.36q0,.728-.887.728a2.108,2.108,0,0,1-1.032-.3.547.547,0,0,0-.272-.072.673.673,0,0,0-.1.008.489.489,0,0,0-.316.192l-.008.024a.44.44,0,0,0-.1.28.457.457,0,0,0,.222.392,3.419,3.419,0,0,0,1.27.424.063.063,0,0,1,.059.072v.45a.38.38,0,0,0,.128.288.433.433,0,0,0,.307.12.417.417,0,0,0,.3-.12.386.386,0,0,0,.124-.288v-.48a.067.067,0,0,1,.068-.072,1.846,1.846,0,0,0,1.091-.6,1.694,1.694,0,0,0,.383-1.124,1.517,1.517,0,0,0-.113-.6,1.343,1.343,0,0,0-.3-.453,2.925,2.925,0,0,0-.426-.336,3.322,3.322,0,0,0-.486-.264q-.247-.108-.486-.227t-.426-.227a.99.99,0,0,1-.3-.253.541.541,0,0,1-.113-.336.619.619,0,0,1,.208-.51.911.911,0,0,1,.593-.17,1.441,1.441,0,0,1,.741.2.575.575,0,0,0,.324.1h.043a.492.492,0,0,0,.333-.152.439.439,0,0,0,.137-.32.4.4,0,0,0-.17-.336,2.379,2.379,0,0,0-1.023-.424h0Z" transform="translate(-479.011 -57.978)"  fill-rule="evenodd"/>
</svg>
