<svg xmlns="http://www.w3.org/2000/svg" width="19.364" height="22" viewBox="0 0 19.364 22">
  <path id="icon_ac_invitefriend" d="M15.23,22.9A4.165,4.165,0,1,1,19.4,18.732,4.165,4.165,0,0,1,15.23,22.9Zm2.612-4.66H15.865V16.261a.565.565,0,1,0-1.13,0v1.977H12.759a.565.565,0,1,0,0,1.13h1.977v1.977a.565.565,0,0,0,1.13,0V19.367h1.977a.565.565,0,0,0,0-1.13Zm-7.96.391a5.272,5.272,0,0,0,.127,1.139H2.946c-.215-.044-.433-.076-.643-.134A2.925,2.925,0,0,1,.044,16.84,9.811,9.811,0,0,1,.7,12.632,3.88,3.88,0,0,1,2.45,10.548a3.487,3.487,0,0,1,1.719-.407,1.341,1.341,0,0,1,.565.192c.28.151.54.337.812.5a4.252,4.252,0,0,0,4.743,0c.219-.134.444-.263.65-.415a1.59,1.59,0,0,1,1.243-.25,3.5,3.5,0,0,1,2.676,1.9,6.474,6.474,0,0,1,.543,1.325c-.089,0-.176-.013-.266-.013A5.254,5.254,0,0,0,9.883,18.628ZM7.8,9.9A4.548,4.548,0,0,1,3.2,5.4,4.548,4.548,0,0,1,7.8.9a4.548,4.548,0,0,1,4.6,4.5A4.548,4.548,0,0,1,7.8,9.9Z" transform="translate(-0.032 -0.897)"  fill-rule="evenodd"/>
</svg>
