<svg id="icon_reward" xmlns="http://www.w3.org/2000/svg" width="14.861" height="17" viewBox="0 0 14.861 17">
  <path id="reward" d="M804.51,74.291a2.684,2.684,0,0,1-.376-.333c-.43-.555-.847-1.119-1.262-1.684a.256.256,0,0,0-.234-.117c-.73,0-1.46,0-2.19,0a.532.532,0,0,1-.526-.274.454.454,0,0,1-.011-.431c.531-1.068,1.063-2.134,1.608-3.227a7.434,7.434,0,0,0,5.06,2.763c-.031.069-.055.123-.079.176-.449.9-.9,1.8-1.346,2.7a.788.788,0,0,1-.409.429h-.233Zm5.347,0a.748.748,0,0,1-.408-.408c-.447-.907-.9-1.81-1.354-2.714-.026-.055-.05-.107-.084-.179a7.423,7.423,0,0,0,5.053-2.754c.024.038.043.065.058.094l1.528,3.054a.511.511,0,0,1-.494.777c-.725,0-1.45,0-2.175,0a.3.3,0,0,0-.274.137c-.407.552-.816,1.1-1.236,1.646a3.058,3.058,0,0,1-.381.352h-.232Zm3.806-10.624a6.364,6.364,0,1,1-6.346-6.375,6.364,6.364,0,0,1,6.346,6.375Zm-9.052,2.871a.526.526,0,0,0,.788.564c.578-.263,1.175-.483,1.767-.713a.394.394,0,0,1,.262,0c.6.232,1.189.477,1.785.71a.785.785,0,0,0,.335.065.494.494,0,0,0,.439-.6c-.042-.646-.092-1.291-.128-1.937a.42.42,0,0,1,.085-.264c.409-.5.83-.993,1.243-1.492A.5.5,0,0,0,810.9,62c-.616-.156-1.231-.313-1.849-.461a.41.41,0,0,1-.281-.2c-.329-.537-.666-1.07-1-1.6a.51.51,0,0,0-.946,0c-.332.529-.666,1.057-.992,1.591a.429.429,0,0,1-.29.213c-.607.144-1.211.3-1.816.453a.512.512,0,0,0-.294.906c.4.483.807.968,1.217,1.448a.379.379,0,0,1,.1.3c-.051.629-.091,1.259-.136,1.887Zm2.684-5.675c.2.32.384.62.575.917.427.674.27.552,1.037.752.336.088.674.168,1.038.259-.048.063-.081.11-.117.153-.266.319-.526.642-.8.952a.76.76,0,0,0-.188.625c.04.4.06.805.088,1.207,0,.055,0,.107,0,.182-.4-.159-.784-.291-1.152-.468a1.016,1.016,0,0,0-.962,0c-.317.155-.653.269-.982.4-.05.02-.1.036-.176.062.019-.291.035-.56.055-.828.014-.215.025-.431.048-.645a.617.617,0,0,0-.154-.489c-.287-.337-.569-.678-.853-1.018-.031-.037-.059-.076-.1-.134.392-.1.76-.219,1.138-.28a1.133,1.133,0,0,0,.892-.648C806.851,61.528,807.075,61.216,807.3,60.862Z" transform="translate(-799.864 -57.292)" fill-rule="evenodd"/>
</svg>
