<svg xmlns="http://www.w3.org/2000/svg" width="30" height="30" viewBox="0 0 30 30">
  <g id="mobile_down_icon" transform="translate(-16 -753)">
    <circle id="타원_56" data-name="타원 56" cx="15" cy="15" r="15" transform="translate(16 753)" />
    <path id="Icon_awesome-download" data-name="Icon awesome-download" d="M6.75,0h2.5A.748.748,0,0,1,10,.75V6h2.741a.624.624,0,0,1,.441,1.066L8.428,11.822a.605.605,0,0,1-.853,0L2.816,7.066A.624.624,0,0,1,3.256,6H6V.75A.748.748,0,0,1,6.75,0ZM16,11.75v3.5a.748.748,0,0,1-.75.75H.75A.748.748,0,0,1,0,15.25v-3.5A.748.748,0,0,1,.75,11H5.334l1.531,1.531a1.6,1.6,0,0,0,2.269,0L10.666,11H15.25A.748.748,0,0,1,16,11.75ZM12.125,14.5a.625.625,0,1,0-.625.625A.627.627,0,0,0,12.125,14.5Zm2,0a.625.625,0,1,0-.625.625A.627.627,0,0,0,14.125,14.5Z" transform="translate(23 760)" fill="#fff"/>
  </g>
</svg>
