<svg id="mail" xmlns="http://www.w3.org/2000/svg" width="32" height="23.945" viewBox="0 0 32 23.945">
  <path id="mail-2" data-name="mail" d="M850.207,82.883V68.219a.85.85,0,0,1,.138.061l12.969,8.65a4.81,4.81,0,0,0,5.712.017q6.409-4.268,12.814-8.545c.091-.06.185-.118.316-.2V82.432a3.164,3.164,0,0,1-.094.77,2.942,2.942,0,0,1-3.005,2.227h-25.74a3.079,3.079,0,0,1-2.215-.838,3.3,3.3,0,0,1-.9-1.709Zm0-18.846c.051-.178.1-.359.155-.534a2.954,2.954,0,0,1,2.828-2.011h25.833a3.017,3.017,0,0,1,2.37.98,2.835,2.835,0,0,1-.494,4.3c-1.942,1.32-3.9,2.61-5.858,3.914l-6.978,4.652a2.973,2.973,0,0,1-3.757,0c-4.1-2.732-8.189-5.476-12.3-8.187a3.612,3.612,0,0,1-1.793-2.3,1.883,1.883,0,0,1,0-.819Z" transform="translate(-850.164 -61.489)" fill-rule="evenodd"/>
</svg>
