<svg xmlns="http://www.w3.org/2000/svg" width="54" height="62.232" viewBox="0 0 54 62.232">
  <g id="icon_localized" transform="translate(-100 -1599)">
    <path id="Polygon_1" data-name="Polygon 1" d="M103.586,122.764l4.218.1a.783.783,0,0,1,.447,1.413l-3.325,2.441,1.206,3.9a.785.785,0,0,1-1.185.884l-3.533-2.332L97.882,131.5a.785.785,0,0,1-1.185-.884l1.205-3.9-3.324-2.443a.783.783,0,0,1,.447-1.413l4.218-.1,1.432-3.888a.787.787,0,0,1,1.478,0Z" transform="translate(25.575 1529.601)" fill="#f5f5f5" fill-rule="evenodd"/>
    <path id="Polygon_1-2" data-name="Polygon 1" d="M124.43,114.057c-1.016.658-3.548.491-3.548.491s-.246-2.613,3.152-2.678c1.416-.027,2-.411,1.971-.638A3.919,3.919,0,0,1,124.43,114.057Zm-2.38-2.786s-3.983-2.473-.517-5.589c1.444-1.3,1.509-2.219,1.154-2.426,0,0,2.56,2.038,2.377,4.325C124.939,109.169,122.051,111.271,122.051,111.271Zm-10.9-34.6h8.764a23.538,23.538,0,0,1,2.253,9.661h-9.477a33.64,33.64,0,0,0-1.541-9.661Zm-7.706-13.082a23.825,23.825,0,0,1,15.109,10.6h-8.294A33.794,33.794,0,0,0,103.446,63.587Zm-3.823,10.6V63.438a31.324,31.324,0,0,1,7.865,10.745H99.624Zm-9.551,26.784h7.1v9.159a31.359,31.359,0,0,1-7.1-9.16Zm-3.345-12.15H97.176v9.664H88.935a30.988,30.988,0,0,1-2.207-9.665Zm1.612-12.151h8.836v9.664H86.664a31.085,31.085,0,0,1,1.675-9.664Zm8.836-13.235V74.18H89.314a31.322,31.322,0,0,1,7.862-10.749ZM86.541,74.18H78.247a23.82,23.82,0,0,1,15.105-10.6,33.791,33.791,0,0,0-6.812,10.6ZM84.11,86.33H74.634a23.555,23.555,0,0,1,2.253-9.663h8.763A33.668,33.668,0,0,0,84.11,86.33Zm-7.632,19.352c3.464,3.115-.518,5.589-.518,5.589s-2.889-2.1-3.015-3.69c-.182-2.288,2.377-4.325,2.377-4.325-.355.206-.29,1.126,1.153,2.425Zm.651,8.865s-2.532.167-3.548-.491a3.916,3.916,0,0,1-1.573-2.825c-.03.227.554.611,1.97.638,3.395.066,3.149,2.679,3.149,2.679Zm-.926,1.681c4-.9,4.856,2.224,4.856,2.224s-2.883.921-4.358.445a5.659,5.659,0,0,1-3.081-2.846C73.687,116.323,74.538,116.6,76.2,116.228Zm3.9,3.883a4.842,4.842,0,0,1,6.315.62s-2.516,1.973-4.325,1.992a8.146,8.146,0,0,1-4.8-1.893c.219.263,1.265.26,2.805-.717Zm-5.386-31.3h9.448a33.547,33.547,0,0,0,2.028,9.664H77.732a23.52,23.52,0,0,1-3.014-9.662Zm18.6,21.115a23.809,23.809,0,0,1-13.947-8.967h7.865a33.841,33.841,0,0,0,6.083,8.97Zm-15.1,3.634c-.211.026-.365.032-.365.032a6.687,6.687,0,0,1-.153-1.167,8.448,8.448,0,0,1-.553-2.234,7.261,7.261,0,0,0,.557,1.82,1.962,1.962,0,0,1,.339-1.111,5.413,5.413,0,0,1,3.116-1.413c-.267,0-.651.466-.53,1.525a2.218,2.218,0,0,1-2.064,2.485,11.374,11.374,0,0,0,2.221,2.278,2.805,2.805,0,0,1-.256-1.846c.587-1.639,3.017-2.545,3.017-2.545-.313.073-.555.731.051,1.934,1,1.985-.359,3.026-1.314,3.492a24.578,24.578,0,0,0,4.132,2.006c-.477-.59-1.6-2.117-1.413-3.15.346-1.871,2.836-3.146,2.836-3.146-.328.116-.477.867.405,2.122,1.805,2.574-.654,3.983-1.405,4.337a35.9,35.9,0,0,0,6.105,1.623s1.993.628-1.7.268C83.1,120.082,79.672,116.388,78.216,113.563Zm43.87-24.748a23.5,23.5,0,0,1-3.015,9.661h-8.463a33.537,33.537,0,0,0,2.028-9.661Zm-18.6,21.11a33.841,33.841,0,0,0,6.086-8.964h7.865a23.814,23.814,0,0,1-13.951,8.964ZM99.625,76.669h8.837a31.082,31.082,0,0,1,1.675,9.661H99.624V76.669Zm0,33.448v-9.155h7.1a31.363,31.363,0,0,1-7.105,9.155Zm0-21.3h10.45a30.96,30.96,0,0,1-2.208,9.661H99.624V88.816Zm5.444,31.792a35.907,35.907,0,0,0,6.1-1.623c-.751-.355-3.21-1.764-1.405-4.337.879-1.255.734-2.005.405-2.122,0,0,2.491,1.274,2.836,3.146.191,1.033-.937,2.56-1.413,3.151a24.633,24.633,0,0,0,4.132-2.007c-.953-.466-2.314-1.507-1.314-3.492.606-1.2.364-1.859.051-1.934,0,0,2.431.906,3.017,2.545a2.807,2.807,0,0,1-.256,1.846,11.377,11.377,0,0,0,2.22-2.278,2.219,2.219,0,0,1-2.064-2.485c.121-1.061-.263-1.529-.53-1.525a5.411,5.411,0,0,1,3.115,1.413,1.963,1.963,0,0,1,.339,1.111,7.254,7.254,0,0,0,.557-1.82,8.459,8.459,0,0,1-.553,2.234,6.7,6.7,0,0,1-.153,1.167s-.154-.007-.365-.032c-1.456,2.825-4.889,6.519-13.027,7.314-3.693.359-1.7-.269-1.7-.269Zm12.839-.5c1.54.975,2.586.98,2.805.718a8.146,8.146,0,0,1-4.8,1.893c-1.809-.02-4.325-1.992-4.325-1.992a4.842,4.842,0,0,1,6.315-.617Zm-.957-1.661s.86-3.121,4.857-2.222c1.668.375,2.516.1,2.581-.179a5.657,5.657,0,0,1-3.08,2.846c-1.477.478-4.358-.444-4.358-.444Z" transform="translate(27.993 1535.569)" fill="#f5f5f5" fill-rule="evenodd"/>
  </g>
</svg>
