<svg xmlns="http://www.w3.org/2000/svg" width="54.387" height="72" viewBox="0 0 54.387 72">
  <g id="icon_brands" transform="translate(-100 -1599)">
    <path id="reward" d="M104.181,114.548A27.2,27.2,0,1,1,131.446,87.4,27.194,27.194,0,0,1,104.181,114.548Zm15.453-34.253c-2.631-.667-5.26-1.335-7.9-1.969a1.752,1.752,0,0,1-1.2-.852c-1.4-2.3-2.843-4.572-4.275-6.851-1.14-1.812-2.9-1.812-4.042,0-1.421,2.259-2.846,4.516-4.238,6.791a1.831,1.831,0,0,1-1.24.912c-2.593.617-5.177,1.28-7.761,1.937-2.128.541-2.664,2.2-1.26,3.873,1.73,2.064,3.451,4.138,5.2,6.186a1.622,1.622,0,0,1,.418,1.28c-.2,2.685-.383,5.373-.57,8.059-.306,2.232,1.623,3.2,3.366,2.41,2.468-1.121,5.018-2.064,7.548-3.045a1.685,1.685,0,0,1,1.119,0c2.551.989,5.08,2.037,7.628,3.036a3.36,3.36,0,0,0,1.433.279,2.124,2.124,0,0,0,1.867-2.544c-.181-2.758-.4-5.515-.55-8.274a1.788,1.788,0,0,1,.364-1.129c1.746-2.143,3.545-4.244,5.309-6.373,1.284-1.55.729-3.234-1.216-3.728Zm-4.574,4.016c-1.137,1.362-2.247,2.745-3.425,4.069a3.243,3.243,0,0,0-.806,2.673c.174,1.716.259,3.439.376,5.162.016.227,0,.456,0,.777-1.693-.679-3.351-1.243-4.914-2a4.341,4.341,0,0,0-4.111.006c-1.353.664-2.792,1.152-4.195,1.713-.212.085-.432.152-.751.265.078-1.244.147-2.392.223-3.539.062-.919.106-1.842.2-2.757a2.635,2.635,0,0,0-.656-2.092c-1.226-1.44-2.434-2.9-3.645-4.348-.132-.159-.254-.326-.446-.574,1.674-.423,3.248-.931,4.862-1.2a4.841,4.841,0,0,0,3.813-2.767c.741-1.444,1.7-2.775,2.649-4.286.857,1.369,1.648,2.649,2.454,3.92,1.824,2.878,1.155,2.359,4.433,3.214,1.435.375,2.877.719,4.435,1.106C115.358,83.924,115.216,84.124,115.06,84.311ZM92.637,115.542a31.723,31.723,0,0,0,24.577-.812c.017.193.04.331.04.469q-.014,7.294-.029,14.589a2.24,2.24,0,0,1-.794,1.884,2.215,2.215,0,0,1-2.587.133c-2.768-1.392-5.543-2.772-8.3-4.187a1.265,1.265,0,0,0-1.306,0c-2.612,1.329-5.232,2.646-7.876,3.908a13.069,13.069,0,0,1-2.129.612l-.887-.447a3.2,3.2,0,0,1-.775-2.342c.037-4.321.031-8.642.041-12.963C92.616,116.134,92.629,115.881,92.637,115.542Z" transform="translate(22.941 1538.844)" fill="#f5f5f5" fill-rule="evenodd"/>
    <path id="reward-2" data-name="reward" d="M115.06,84.311c-1.137,1.362-2.247,2.745-3.425,4.069a3.243,3.243,0,0,0-.806,2.673c.174,1.716.259,3.439.376,5.162.016.227,0,.456,0,.777-1.693-.679-3.351-1.243-4.914-2a4.341,4.341,0,0,0-4.111.006c-1.353.664-2.792,1.152-4.195,1.713-.212.085-.432.152-.751.265.078-1.244.147-2.392.223-3.539.062-.919.106-1.842.2-2.757a2.635,2.635,0,0,0-.656-2.092c-1.226-1.44-2.434-2.9-3.645-4.348-.132-.159-.254-.326-.446-.574,1.674-.423,3.248-.931,4.862-1.2a4.841,4.841,0,0,0,3.813-2.767c.741-1.444,1.7-2.775,2.649-4.286.857,1.369,1.648,2.649,2.454,3.92,1.824,2.878,1.155,2.359,4.433,3.214,1.435.375,2.877.719,4.435,1.106C115.358,83.924,115.216,84.124,115.06,84.311Z" transform="translate(22.941 1538.844)" fill="#f5f5f5" fill-rule="evenodd"/>
  </g>
</svg>
