<svg id="jackpotslot" xmlns="http://www.w3.org/2000/svg" width="32" height="43.258" viewBox="0 0 32 43.258">
  <path id="jackpotslot-2" data-name="jackpotslot" d="M1280.357,94.959h-27.5a7.577,7.577,0,0,1-1.038-.448,2.57,2.57,0,0,1-1.072-1.658V73.4a1.685,1.685,0,0,0,.068-.228,2.455,2.455,0,0,1,2.349-1.869q13.441-.016,26.882,0a2.424,2.424,0,0,1,2.3,1.751c.034.114.08.228.114.349V92.855q-.034.1-.068.2a2.429,2.429,0,0,1-1.38,1.675C1280.8,94.823,1280.573,94.885,1280.357,94.959Zm-13.749-7.489h10.967a.963.963,0,0,0,1.106-1.114V75.578a.971.971,0,0,0-1.14-1.118h-21.877a.98.98,0,0,0-1.14,1.129V86.3a.985.985,0,0,0,1.151,1.167h10.933Zm0,2.6h-9.291c-.627,0-1.266-.008-1.892.006a.928.928,0,0,0-.9.856.947.947,0,0,0,.741.972,2,2,0,0,0,.4.023h22.14a.928.928,0,0,0,.125-1.838,1.873,1.873,0,0,0-.365-.019h-10.956Zm5.2-26.821a14.082,14.082,0,0,1,1.482.319,7.374,7.374,0,0,1,5.256,5.675.259.259,0,0,1,.011.091v.084h-23.964a16.057,16.057,0,0,1,.525-1.59A7.417,7.417,0,0,1,1261.2,63.3a1.86,1.86,0,0,0,.205-.057h10.4Zm-9.85,3.409a.924.924,0,1,0-.912.927.934.934,0,0,0,.912-.929Zm3.716,0a.938.938,0,0,0-.923-.926.928.928,0,1,0,.923.919Zm3.717,0a.923.923,0,1,0-.912.933.935.935,0,0,0,.912-.941Zm2.8.933a.889.889,0,1,1,0-.008Zm-15.79,8.753h5.529v9.265H1256.4V76.333Zm2.736,3.939a1.889,1.889,0,0,1-.126.279c-.308.57-.615,1.14-.912,1.717-.148.287-.068.436.251.456a3.147,3.147,0,0,0,.581-.007.448.448,0,0,0,.3-.165q.667-1.237,1.3-2.5a.651.651,0,0,0-.467-.816c-.661-.008-1.311,0-1.972,0a.29.29,0,0,0-.331.322v.342a.318.318,0,0,0,.388.381c.319-.026.639-.019.992-.019Zm4.7-3.939h5.541v9.253h-5.541V76.333Zm2.748,3.939c-.068.131-.1.213-.148.292-.3.554-.593,1.106-.878,1.664-.194.349-.1.487.3.495a2.2,2.2,0,0,0,.5-.01.558.558,0,0,0,.331-.2q.65-1.209,1.266-2.44a.633.633,0,0,0-.536-.836c-.6,0-1.208.006-1.824,0a.328.328,0,0,0-.4.4v.279a.311.311,0,0,0,.376.366c.319-.021.639-.016,1.015-.016Zm4.686-3.937h5.541v9.25h-5.541V76.335Zm2.748,3.937a1.947,1.947,0,0,1-.137.27c-.3.57-.616,1.14-.912,1.717-.16.3-.068.448.262.456a3.089,3.089,0,0,0,.593-.008.436.436,0,0,0,.285-.181c.433-.816.867-1.638,1.277-2.468a.627.627,0,0,0-.536-.829h-1.767c-.4,0-.456.055-.456.467v.215a.3.3,0,0,0,.354.359c.331-.009.661-.007,1.037-.007Zm-8-28.1a.845.845,0,0,1,1.528,0l.992,2.124,2.337.293a.839.839,0,0,1,.467,1.448l-1.71,1.605.445,2.3a.849.849,0,0,1-1.243.895l-2.052-1.132-2.052,1.132a.84.84,0,0,1-1.231-.895l.433-2.3-1.71-1.605a.843.843,0,0,1,.467-1.448l2.337-.293Zm-11.879,4.292a.675.675,0,0,1,1.22,0l.8,1.7,1.858.234a.67.67,0,0,1,.376,1.158l-1.368,1.284.353,1.843a.671.671,0,0,1-.98.716l-1.653-.905-1.642.905a.677.677,0,0,1-.992-.716l.354-1.843-1.368-1.284a.676.676,0,0,1,.376-1.158l1.87-.234Zm24.146,0a.675.675,0,0,1,1.22,0l.8,1.7,1.858.234a.67.67,0,0,1,.376,1.158l-1.368,1.284.353,1.843a.668.668,0,0,1-.98.716l-1.653-.905-1.642.905a.668.668,0,0,1-.981-.716l.354-1.843-1.368-1.284a.67.67,0,0,1,.376-1.158l1.858-.234Z" transform="translate(-1250.75 -51.701)"  fill-rule="evenodd"/>
</svg>
