<svg xmlns="http://www.w3.org/2000/svg" width="32" height="31.98" viewBox="0 0 32 31.98">
  <path id="info" d="M150.248,90.141h-1.876c-.214-.026-.429-.053-.643-.076a15.59,15.59,0,0,1-7.262-2.625,15.849,15.849,0,0,1-6.91-10.572c-.107-.592-.165-1.192-.247-1.788V73.207c.068-.536.117-1.072.206-1.608a16.089,16.089,0,0,1,17.391-13.366,14.991,14.991,0,0,1,8.36,3.438,15.676,15.676,0,0,1,5.952,14.053,14.872,14.872,0,0,1-2.614,7.262A15.854,15.854,0,0,1,152.032,89.9C151.444,90,150.844,90.06,150.248,90.141Zm.95-16.067v-.506c0-.916.01-1.832,0-2.748a1.578,1.578,0,0,0-2.161-1.276,1.355,1.355,0,0,0-1.06,1.32v4.264c0,.733-.005,6.473,0,7.206a1.355,1.355,0,0,0,1.058,1.276,1.578,1.578,0,0,0,2.163-1.275C151.2,81.252,151.2,75.158,151.2,74.074Zm0-8.047a1.608,1.608,0,1,0-1.608,1.608,1.608,1.608,0,0,0,1.608-1.608Z" transform="translate(-133.311 -58.16)"  fill-rule="evenodd"/>
</svg>
