<svg id="onlinesupport" xmlns="http://www.w3.org/2000/svg" width="32" height="30.617" viewBox="0 0 32 30.617">
  <path id="onlinesupport-2" data-name="onlinesupport" d="M1255.22,156.389a10.764,10.764,0,0,1,.47-1.52,4.8,4.8,0,0,1,4.23-2.838c.518-.04,1.041-.02,1.559-.013a.919.919,0,0,1,.958.861,1.345,1.345,0,0,1,.012.154c0,3.2.006,6.4-.012,9.6a1.437,1.437,0,0,1-.286.749.707.707,0,0,1-.5.259,8.818,8.818,0,0,1-2.731-.141,4.84,4.84,0,0,1-3.641-3.986.592.592,0,0,0-.06-.166V156.39Zm24.726,1.437v-4.492c0-1.055.268-1.332,1.351-1.314a11.544,11.544,0,0,1,1.951.127,4.733,4.733,0,0,1,3.861,4.14,10.843,10.843,0,0,1-.125,3.793,4.925,4.925,0,0,1-4.533,3.57c-.488.013-.976.011-1.464.008a.938.938,0,0,1-1.041-1.033c-.006-1.282,0-2.563,0-3.845v-.952Zm3.32-7.72c-.583-.084-1.862-.472-2.386-.569a.362.362,0,0,1-.173-.256,9.325,9.325,0,0,0-1.386-2.993,9.49,9.49,0,0,0-6.194-4.059,9.63,9.63,0,0,0-8.894,2.677,9.157,9.157,0,0,0-2.535,4.381.331.331,0,0,1-.345.281c-.476.052-1.7.464-2.2.543a12.263,12.263,0,0,1,24.113-.007Zm.607,15.188a7.813,7.813,0,0,1-2.463,3.548,8,8,0,0,1-5.033,1.854.946.946,0,0,1-1.059-.85.913.913,0,0,1,.952-.985,6.648,6.648,0,0,0,2.814-.7,5.993,5.993,0,0,0,2.517-2.395.5.5,0,0,1,.482-.281C1282.671,165.449,1283.254,165.363,1283.873,165.294Z" transform="translate(-1255.22 -140.087)" fill-rule="evenodd"/>
</svg>
