<svg id="partner" xmlns="http://www.w3.org/2000/svg" width="18" height="17.683" viewBox="0 0 18 17.683">
  <path id="partner-2" data-name="partner" d="M1404.252,68.733l-3.8-3.858,1.317-1.312,3.88,3.781Zm-5.738-5.261a.448.448,0,0,1-.763-.315.437.437,0,0,1,.134-.315l1.257-1.259a.445.445,0,0,1,.629.63Zm1.241,1.866,3.955,3.935-2.173,2.083-3.181-3.241s.591-.5.233-.849-.775.231-.775.231l-1.864,1.852a.7.7,0,0,1-.932-.231.67.67,0,0,1-.151-.849l1.94-1.929a1.716,1.716,0,0,1,1.083-.463c.6.015,1.539-.033,1.864-.541Zm-3.6-2.3a.508.508,0,0,1-.509-.508V60.5a.509.509,0,0,1,1.019,0v2.031a.508.508,0,0,1-.509.508Zm-1.68,6.778a1.892,1.892,0,0,0,1.94.154l1.4-1.312,4.031,4.01a.6.6,0,0,1-.076.695.719.719,0,0,1-.775.154l-1.864-1.852a.429.429,0,0,0-.542-.077.315.315,0,0,0-.076.463l1.94,2a.487.487,0,0,1-.081.695.806.806,0,0,1-.775.154l-1.94-2a.343.343,0,0,0-.466.077.36.36,0,0,0-.076.463l1.94,2a.692.692,0,0,1-.076.695.637.637,0,0,1-.7.154l-.542-.542a1.06,1.06,0,0,0-.39-.926,1.516,1.516,0,0,0-.932-.463.967.967,0,0,0-.385-.926,2.686,2.686,0,0,0-1.013-.463,1.557,1.557,0,0,0-.385-.926,1.217,1.217,0,0,0-1.008-.386,1.185,1.185,0,0,0-.542-1.08,1.7,1.7,0,0,0-1.555-.077l-.932.849-.851-.926,4.5-4.475a1.931,1.931,0,0,1,1.322.542l-1.4,1.389a1.612,1.612,0,0,0,.309,1.932Zm-.677-6.34-1.257-1.259a.437.437,0,0,1,0-.63.444.444,0,0,1,.629,0l1.257,1.259a.445.445,0,0,1-.628.627Zm-4.676,6.418-1.474-1.466,4.421-4.321,1.474,1.389ZM1392,71.128a.6.6,0,0,1,.7.077.508.508,0,0,1,.076.695l-1.549,1.62a.6.6,0,0,1-.775-.154.576.576,0,0,1-.076-.695Zm1.4,1.389a.58.58,0,0,1,.775.772l-1.55,1.62a.685.685,0,0,1-.775-.154.5.5,0,0,1-.081-.695Zm1.4,1.312a.549.549,0,0,1,.618.077.7.7,0,0,1,.157.695l-1.555,1.62a.635.635,0,0,1-.775-.077.668.668,0,0,1-.076-.772Zm1.393,1.312a.624.624,0,0,1,.623.154.53.53,0,0,1,.152.617l-1.55,1.62a.709.709,0,0,1-.775,0,.777.777,0,0,1-.076-.849Zm1.4,2.392a.636.636,0,0,1-.932-.154l.856-.849s.607.584.076,1Z" transform="translate(-1387.65 -59.988)" fill-rule="evenodd"/>
</svg>
