<svg id="privacy" xmlns="http://www.w3.org/2000/svg" width="18" height="16.23" viewBox="0 0 18 16.23">
  <path id="secrecy" d="M1485.466,76.086a3.748,3.748,0,0,1-.67,1.861,4.062,4.062,0,0,1-2.711,1.769c-.152.028-.3.042-.455.063h-.48l-.164-.02a4.009,4.009,0,0,1-1.864-.673,4.053,4.053,0,0,1-1.769-2.71c-.032-.152-.044-.306-.063-.458v-.478c.013-.137.025-.275.05-.411A4.125,4.125,0,0,1,1481.8,71.6a3.834,3.834,0,0,1,2.142.881A4.009,4.009,0,0,1,1485.466,76.086Zm-1.889-.466a.719.719,0,0,0-.518-.687l.025-.008v-.514a1.763,1.763,0,1,0-3.526,0v.514l.032.009a.721.721,0,0,0-.518.687v1.852c0,1.243,1.011,1.175,2.256,1.175s2.249.068,2.249-1.175V75.621Zm-3.456-1.166a1.2,1.2,0,1,1,2.4,0V74.9h-2.4v-.445Zm1.207,1.461a.49.49,0,0,1,.487.49.481.481,0,0,1-.2.388l.082.771a.082.082,0,0,1-.082.08h-.588a.076.076,0,0,1-.076-.08l.076-.771a.48.48,0,0,1-.2-.388.492.492,0,0,1,.493-.489Zm.581-5.393a5.228,5.228,0,0,0-5.642,4.334c-.026.172-.044.347-.063.521v.608c.025.193.044.388.082.579a5.094,5.094,0,0,0,2.034,3.261h-10.179a.563.563,0,0,1-.645-.641q-.01-7.468,0-14.935a.565.565,0,0,1,.644-.64c1.182,0,4.619.022,13.06,0,.366.075.771.028.771.758v6.169a.451.451,0,0,0-.063-.013Zm-4.555-1.065c.366.007.739,0,1.106,0h.164c.316,0,.632.006.948,0a.579.579,0,0,0,.291-.751.356.356,0,0,0-.322-.368h-2.161a.311.311,0,0,0-.107.021.493.493,0,0,0-.228.442c-.031.369.095.651.31.656Zm-6.957,7.456c.67.006,1.34,0,2.009,0h.291c.569,0,1.144.006,1.719,0a.535.535,0,0,0,.531-.727.552.552,0,0,0-.588-.356h-3.911a1.086,1.086,0,0,0-.2.02.493.493,0,0,0-.4.427.523.523,0,0,0,.556.636Zm4-3.481c-.367-.005-.739,0-1.112,0h-1.5a.416.416,0,0,0-.385.429.541.541,0,0,0,.36.709c.442,0,.885,0,1.327,0h1.327a.393.393,0,0,0,.354-.389.55.55,0,0,0-.366-.749Zm.651-2.6a2.545,2.545,0,0,0-1.1-2.095l-.095-.073a1.736,1.736,0,0,0-.3-2.33,1.694,1.694,0,0,0-2.136-.027,1.74,1.74,0,0,0-.335,2.361c-.063.046-.126.092-.183.14a2.423,2.423,0,0,0-.973,1.655,10.252,10.252,0,0,0-.031,1.246.529.529,0,0,0,.556.556q2.009.005,4.018,0a.54.54,0,0,0,.575-.569Q1475.056,71.263,1475.047,70.828Zm5.636-4.391a.555.555,0,0,0-.594-.356h-3.911a1.029,1.029,0,0,0-.2.02.505.505,0,0,0-.411.427.526.526,0,0,0,.556.636c.67.006,1.34,0,2.009,0h.291c.575,0,1.15.006,1.719,0a.538.538,0,0,0,.537-.727Zm-9.673,4.736a1.5,1.5,0,1,1,2.932,0Zm1.466-2.913a.607.607,0,0,1-.625-.613.619.619,0,1,1,1.238-.01.6.6,0,0,1-.613.622Z" transform="translate(-1467.49 -63.602)"  fill-rule="evenodd"/>
</svg>
