<svg xmlns="http://www.w3.org/2000/svg" width="19.196" height="21" viewBox="0 0 19.196 21">
  <g id="responsible" transform="translate(0)">
    <path id="Polygon_1" data-name="Polygon 1" d="M1549.94,74.719a2.8,2.8,0,0,1-1.244.172s-.082-.917,1.105-.942c.5-.01.7-.144.693-.222A1.384,1.384,0,0,1,1549.94,74.719Zm-.834-.979a1.16,1.16,0,0,1-.182-1.962c.51-.456.533-.779.406-.851,0,0,.9.715.832,1.518C1550.118,73,1549.106,73.74,1549.106,73.74Zm-8.146-.185a7.882,7.882,0,1,1,7.882-7.882,7.883,7.883,0,0,1-7.882,7.882Zm0-15.309a7.423,7.423,0,1,0,7.422,7.422,7.422,7.422,0,0,0-7.422-7.422Zm4.979,12.593-1.679-1.829a2.36,2.36,0,0,0,.88-1.035c.483-.831.36-1.117.36-1.117l2.424.544a9.029,9.029,0,0,1-.754,1.8A10.122,10.122,0,0,1,1545.939,70.839Zm-.893-7.6c-.476-.831-.786-.87-.786-.87l1.684-1.829a8.893,8.893,0,0,1,1.18,1.552,9.923,9.923,0,0,1,.8,1.882l-2.429.544A2.314,2.314,0,0,0,1545.046,63.243Zm-4.086,6.8a4.368,4.368,0,1,1,4.329-4.368,4.369,4.369,0,0,1-4.329,4.368Zm1.957-3.753a1.273,1.273,0,0,0-.255-.409,3.072,3.072,0,0,0-.367-.309,2.409,2.409,0,0,0-.4-.239c-.137-.064-.278-.13-.417-.2s-.253-.132-.36-.191a.908.908,0,0,1-.255-.206.409.409,0,0,1-.093-.258.476.476,0,0,1,.15-.394.72.72,0,0,1,.458-.121,1.128,1.128,0,0,1,.577.162.493.493,0,0,0,.278.081.2.2,0,0,0,.05-.007.412.412,0,0,0,.3-.147l.091-.111a.427.427,0,0,0,.119-.3.372.372,0,0,0-.157-.317,1.968,1.968,0,0,0-.9-.405.065.065,0,0,1-.05-.067v-.382a.431.431,0,0,0-.431-.435h-.014a.421.421,0,0,0-.431.435v.4a.065.065,0,0,1-.05.067,1.574,1.574,0,0,0-.918.56,1.625,1.625,0,0,0-.333,1.053,1.34,1.34,0,0,0,.438,1,2.8,2.8,0,0,0,.444.32,5.351,5.351,0,0,0,.474.262c.162.079.3.156.433.232a1.216,1.216,0,0,1,.321.258.454.454,0,0,1,.128.306.506.506,0,0,1-.162.416.775.775,0,0,1-.5.136,1.654,1.654,0,0,1-.85-.258.434.434,0,0,0-.232-.067.333.333,0,0,0-.1.015.378.378,0,0,0-.264.177l-.116.177a.433.433,0,0,0-.077.258.484.484,0,0,0,0,.081.376.376,0,0,0,.182.28,2.852,2.852,0,0,0,1.114.4.054.054,0,0,1,.043.02.061.061,0,0,1,.018.046v.361a.422.422,0,0,0,.121.309.427.427,0,0,0,.31.125h.014a.431.431,0,0,0,.431-.435v-.406a.075.075,0,0,1,.009-.045.067.067,0,0,1,.041-.022,1.607,1.607,0,0,0,.955-.6,1.771,1.771,0,0,0,.326-1.068A1.542,1.542,0,0,0,1542.918,66.287Zm-2.03-5.332c-.957,0-1.146.247-1.146.247L1539,58.83a8.868,8.868,0,0,1,1.937-.247,9.984,9.984,0,0,1,2.032.247l-.743,2.372a2.378,2.378,0,0,0-1.342-.247ZM1537,63.279a2.252,2.252,0,0,0-.444,1.283l-2.506-.592a9.391,9.391,0,0,1,.8-1.879,8.313,8.313,0,0,1,1.183-1.543l1.764,1.87s-.314.033-.791.86Zm-.1,4.663a2.29,2.29,0,0,0,.886,1.026l-1.764,1.87a9.72,9.72,0,0,1-1.23-1.623,8.544,8.544,0,0,1-.741-1.8l2.5-.592s-.128.289.349,1.117Zm3.979,2.409a2.288,2.288,0,0,0,1.335-.257l.741,2.462a9.564,9.564,0,0,1-2.023.257,8.568,8.568,0,0,1-1.93-.257l.738-2.462s.187.256,1.139.256Zm-7.727,1.428a1.156,1.156,0,0,1-.176,1.962s-1.014-.737-1.06-1.3c-.059-.8.839-1.518.839-1.518C1532.636,71,1532.659,71.322,1533.161,71.778Zm.235,3.113a2.794,2.794,0,0,1-1.242-.172,1.377,1.377,0,0,1-.554-.992c-.011.08.194.214.693.222C1533.479,73.974,1533.4,74.891,1533.4,74.891Zm-.326.59a1.294,1.294,0,0,1,1.7.78,3.414,3.414,0,0,1-1.524.156,1.99,1.99,0,0,1-1.08-1C1532.188,75.515,1532.486,75.613,1533.069,75.482Zm1.363,1.363a1.689,1.689,0,0,1,2.21.217,3.392,3.392,0,0,1-1.513.7,2.854,2.854,0,0,1-1.679-.665C1533.527,77.189,1533.894,77.186,1534.432,76.845Zm-.661-2.3c-.071.009-.125.012-.125.012a2.252,2.252,0,0,1-.052-.41,2.822,2.822,0,0,1-.194-.784,2.6,2.6,0,0,0,.194.639.675.675,0,0,1,.119-.388,1.894,1.894,0,0,1,1.089-.5c-.091,0-.226.163-.187.535a.775.775,0,0,1-.72.872,4.134,4.134,0,0,0,.775.8.967.967,0,0,1-.087-.648,1.971,1.971,0,0,1,1.057-.893c-.109.025-.194.256.016.679a.837.837,0,0,1-.458,1.226,8.544,8.544,0,0,0,1.445.7,1.8,1.8,0,0,1-.492-1.108,1.984,1.984,0,0,1,.994-1.1c-.119.041-.169.3.137.745a.963.963,0,0,1-.495,1.522,12.648,12.648,0,0,0,2.142.57s.7.222-.592.094C1535.485,76.834,1534.282,75.537,1533.771,74.546Zm4.883,1.667a.279.279,0,0,1,.157-.5l1.474-.036.5-1.365a.279.279,0,0,1,.262-.183.276.276,0,0,1,.26.183l.5,1.365,1.474.036a.273.273,0,0,1,.262.192.28.28,0,0,1-.1.307l-1.16.857.422,1.367a.278.278,0,0,1-.417.31l-1.235-.819-1.235.819a.278.278,0,0,1-.417-.31l.422-1.367Zm4.514.807a12.5,12.5,0,0,0,2.133-.57.966.966,0,0,1-.488-1.523c.305-.44.253-.7.139-.745a2,2,0,0,1,.991,1.1,1.836,1.836,0,0,1-.492,1.108,8.641,8.641,0,0,0,1.447-.7.838.838,0,0,1-.463-1.226c.212-.422.128-.653.018-.679a1.984,1.984,0,0,1,1.06.893,1.026,1.026,0,0,1-.091.648,4.014,4.014,0,0,0,.777-.8.778.778,0,0,1-.725-.872c.043-.372-.091-.536-.185-.535a1.893,1.893,0,0,1,1.091.5.692.692,0,0,1,.119.388,2.5,2.5,0,0,0,.191-.639,2.743,2.743,0,0,1-.191.784,2.254,2.254,0,0,1-.052.41.877.877,0,0,1-.125-.012c-.51.991-1.711,2.288-4.564,2.567-1.292.123-.59-.1-.59-.1Zm4.493-.174c.538.342.9.344.982.252a2.865,2.865,0,0,1-1.679.665,3.382,3.382,0,0,1-1.513-.7A1.689,1.689,0,0,1,1547.662,76.845Zm-.339-.583a1.3,1.3,0,0,1,1.7-.78c.583.131.882.033.9-.063a1.978,1.978,0,0,1-1.078,1A3.419,3.419,0,0,1,1547.322,76.261Z" transform="translate(-1531.599 -57.791)" fill-rule="evenodd"/>
  </g>
</svg>
