<svg id="terms" xmlns="http://www.w3.org/2000/svg" width="14.898" height="18" viewBox="0 0 14.898 18">
  <path id="terms-2" data-name="terms" d="M1441.58,81.485h-12.422a1.239,1.239,0,0,1-1.238-1.241V64.727a1.239,1.239,0,0,1,1.238-1.242h12.422a1.24,1.24,0,0,1,1.238,1.242V80.246a1.239,1.239,0,0,1-1.238,1.239Zm-2.49-13.658a5.3,5.3,0,0,0-2.941-1.209,5.649,5.649,0,0,0-6.115,4.7c-.034.187-.054.376-.075.564v.659c.027.209.048.421.089.629a5.56,5.56,0,0,0,2.428,3.718,5.473,5.473,0,0,0,2.552.923l.226.027h.663c.205-.029.417-.049.63-.087a5.577,5.577,0,0,0,3.714-2.429,5.224,5.224,0,0,0,.923-2.553,5.517,5.517,0,0,0-2.093-4.941Zm.192,6.844a4.395,4.395,0,0,1-2.941,1.921c-.164.03-.328.046-.492.068h-.527c-.055-.007-.116-.015-.178-.021a4.335,4.335,0,0,1-2.018-.73,4.431,4.431,0,0,1-1.922-2.941c-.027-.164-.048-.331-.068-.5v-.516c.021-.149.034-.3.062-.446a4.292,4.292,0,0,1,1.218-2.394,4.343,4.343,0,0,1,3.612-1.319,4.146,4.146,0,0,1,2.326.958,4.355,4.355,0,0,1,1.655,3.906,4.132,4.132,0,0,1-.725,2.014Zm-.581-4.1a.575.575,0,0,0-.718.014c-.458.386-1.546,1.393-2,1.778-.178.144-.7.581-1.067.889-.739-.733-1.19-1.158-1.231-1.2a.605.605,0,0,0-.93.246.515.515,0,0,0,.075.644c.315.311,1.436,1.409,1.71,1.674a1.124,1.124,0,0,0,.923-.044c.356-.291,1.382-1.154,1.738-1.449l.164-.137c.3-.249,1.217-1.116,1.512-1.368a.667.667,0,0,0-.171-1.047Z" transform="translate(-1427.92 -63.485)" fill-rule="evenodd"/>
</svg>
