<svg xmlns="http://www.w3.org/2000/svg" width="18" height="13.405" viewBox="0 0 18 13.405">
  <g id="treasure_icon" transform="translate(-1125.5 -33.842)">
    <path id="패스_106" data-name="패스 106" d="M1138.455,36.842h11.7a.53.53,0,0,1,.429.218l2.816,3.875a.53.53,0,0,1-.054.686l-8.47,8.47a.53.53,0,0,1-.749,0l-8.47-8.47a.53.53,0,0,1-.074-.656l2.425-3.875A.53.53,0,0,1,1138.455,36.842Zm11.429,1.059h-11.136l-2.046,3.269,7.8,7.8,7.776-7.776Z" transform="translate(-10 -3)" />
    <path id="패스_107" data-name="패스 107" d="M1152.534,41.559H1136.25V40.5h16.284Z" transform="translate(-9.955 -2.783)" fill="#f5f5f5"/>
    <path id="패스_108" data-name="패스 108" d="M1143.734,49.656l-3.066-8.465,1-.361,3.066,8.465Z" transform="translate(-9.693 -2.763)" fill="#f5f5f5"/>
    <path id="패스_109" data-name="패스 109" d="M1141.664,49.656l-1-.361,3.066-8.465,1,.361Z" transform="translate(-6.729 -2.763)" fill="#f5f5f5"/>
    <path id="패스_110" data-name="패스 110" d="M1141.078,42.062l-2.959-4.38.878-.593,2.219,3.285,3.174-3.353.77.728Z" transform="translate(-9.844 -2.989)" />
    <path id="패스_111" data-name="패스 111" d="M1142.252,42.062l-4.082-4.312.77-.728,3.174,3.353,2.219-3.285.878.593Z" transform="translate(-4.544 -2.989)" />
  </g>
</svg>
