<svg xmlns="http://www.w3.org/2000/svg" width="9.046" height="18.779" viewBox="0 0 9.046 18.779">
  <path id="world_icon" d="M1.567,18.287c-.251-.17-.107-.633.3-1.2a7.973,7.973,0,0,0,1-3.054A15.814,15.814,0,0,0,2.614,9.9c-.175-1.04-.777-3.419-.934-4.7s.138-1.557.138-1.557.459.179.679,1.08a9.422,9.422,0,0,0,.92,2.222,1.954,1.954,0,0,0,1.743.981,1.628,1.628,0,0,0,1.768-.981C7.36,6.311,8.02,4.643,8.313,4.089s.733-.625.733-.514a15,15,0,0,1-.619,4.1,14.9,14.9,0,0,1-2.053,4.057,10.37,10.37,0,0,0-1.6,3.076,4.192,4.192,0,0,0-.238,1.91s.188-.5.614-1.436A8.4,8.4,0,0,1,6.1,13.7a5.477,5.477,0,0,0,0,1.016,8.621,8.621,0,0,0,.5,1.868,11.978,11.978,0,0,0,.633,1.132.4.4,0,0,1-.107.614,7.806,7.806,0,0,1-2.832.45A7.535,7.535,0,0,1,1.567,18.287ZM1.65,11.46A42.866,42.866,0,0,0,.608,6.952a9.376,9.376,0,0,1-.521-1.8,4.374,4.374,0,0,1,1.3,1.8c.171.641.31,1.234.6,2.7a9.709,9.709,0,0,1,.415,3.005c-.081,1.052-.326,2.491-.326,2.491S1.952,13.232,1.65,11.46ZM4.665,7.077a1.492,1.492,0,0,1-.475-.311,1.444,1.444,0,0,1-.32-.461,1.416,1.416,0,0,1,0-1.129,1.444,1.444,0,0,1,.32-.461A1.492,1.492,0,0,1,4.665,4.4a1.54,1.54,0,0,1,1.163,0,1.492,1.492,0,0,1,.475.311,1.443,1.443,0,0,1,.32.461,1.416,1.416,0,0,1,0,1.129,1.443,1.443,0,0,1-.32.461,1.492,1.492,0,0,1-.475.311,1.54,1.54,0,0,1-1.163,0Zm.5-3.486a2.228,2.228,0,0,0-1.89,1.076,3.89,3.89,0,0,0-.586-1.242c-.32-.42-.957-.7-1.294-.524C.853,3.2.876,4.8.876,4.8S.4,4.374.029,4.445A3.588,3.588,0,0,1,.518,2.3,4.385,4.385,0,0,1,4.444,0a4.181,4.181,0,0,1,3.12,1.178A3.93,3.93,0,0,1,8.68,2.863a1.662,1.662,0,0,0-.815.6A5.748,5.748,0,0,0,7.213,4.8,2.425,2.425,0,0,0,5.161,3.591Z" transform="translate(0)" />
</svg>
