<svg xmlns="http://www.w3.org/2000/svg" width="17.852" height="15.893" viewBox="0 0 17.852 15.893">
  <g id="check" transform="translate(18625 23037)">
    <path id="check-2" data-name="check" d="M1744.7,66.756l-8.84,7.971a1.55,1.55,0,0,1-1.76,0l-2.83-1.957a1.058,1.058,0,0,1,0-1.476,1.013,1.013,0,0,1,1.45,0l2.26,1.382,8.27-7.4a1.013,1.013,0,0,1,1.45,0A1.077,1.077,0,0,1,1744.7,66.756Zm-7.6.843a5.8,5.8,0,1,0,3.65,5.985l1.99-1.727a7.188,7.188,0,0,1,.1,1.143,7.849,7.849,0,1,1-4.05-6.854c-.11.09-.23.174-.34.281Z" transform="translate(-20352.143 -23101.971)" fill="#fff" fill-rule="evenodd"/>
  </g>
</svg>
