<svg xmlns="http://www.w3.org/2000/svg" width="78" height="57.914" viewBox="0 0 78 57.914">
  <path id="icon_speed" d="M1381.151,653.646a28.813,28.813,0,0,1-19.358-7.452,2.562,2.562,0,0,1-.718.115h-12.2a2.569,2.569,0,0,1-2.566-2.568V641.3a2.569,2.569,0,0,1,2.566-2.568h6.971a28.513,28.513,0,0,1-3.223-9.108h-18.4a2.113,2.113,0,1,1,0-4.227h17.984c0-.235-.02-.469-.02-.707a28.821,28.821,0,0,1,5.274-16.641h-18a2.461,2.461,0,0,1-2.465-2.461v-2.343a2.462,2.462,0,0,1,2.465-2.461h23.46a2.44,2.44,0,0,1,1.333.4,28.957,28.957,0,1,1,16.9,52.47Zm1.829-50.679v1.277a1.5,1.5,0,1,1-3,0v-1.313a21.779,21.779,0,0,0-20.57,20.334h1.505a1.516,1.516,0,1,1,0,3.025h-1.505a21.792,21.792,0,0,0,20.57,20.148v-1.327a1.5,1.5,0,1,1,3,0V646.4a21.793,21.793,0,0,0,19.9-20.115h-1.061a1.515,1.515,0,1,1,0-3.025h1.071a21.8,21.8,0,0,0-19.914-20.3Zm.182,26.449a1.255,1.255,0,0,1-1.748-.266l-.071-.1a.953.953,0,0,1-.142-.129l-6.577-8.943a1.189,1.189,0,0,1,.263-1.662l.909-.671a1.182,1.182,0,0,1,1.657.255l5.324,7.24L1395.9,615.5a1.241,1.241,0,0,1,1.738.267l.7.956a1.236,1.236,0,0,1-.263,1.74Zm-47.758,9.831h4.365a2.45,2.45,0,0,1,2.445,2.445v2.329a2.449,2.449,0,0,1-2.445,2.445H1335.4a2.449,2.449,0,0,1-2.445-2.445v-2.329a2.45,2.45,0,0,1,2.445-2.447Z" transform="translate(-1332.107 -595.732)" fill="#f5f5f5" fill-rule="evenodd"/>
</svg>
