<svg xmlns="http://www.w3.org/2000/svg" width="50.307" height="64.574" viewBox="0 0 50.307 64.574">
  <path id="icon_curacao" d="M688.441,646.483l-10.024-2.625s-1.538,9.229-2.386,10.262a1.086,1.086,0,0,1-1.67.239l-7.737-15.074a25.725,25.725,0,0,0,16.518-7.545c2.505,4.922,6.2,12.177,6.731,13.315C690.693,646.8,688.441,646.483,688.441,646.483Zm-23.627-9.444A23.483,23.483,0,1,1,688.3,613.556a23.482,23.482,0,0,1-23.483,23.483Zm0-41.172A17.686,17.686,0,1,0,682.5,613.552a17.686,17.686,0,0,0-17.685-17.685Zm0,29.014a11.242,11.242,0,1,1,.009,0Zm-1.641,14.41-7.732,15.068a1.086,1.086,0,0,1-1.67-.239c-.85-1.026-2.386-10.262-2.386-10.262l-10.023,2.625s-2.256.314-1.436-1.436c.531-1.128,4.166-8.281,6.665-13.2a25.724,25.724,0,0,0,16.589,7.439Z" transform="translate(-639.746 -590.074)" fill="#f5f5f5" fill-rule="evenodd"/>
</svg>
