<svg xmlns="http://www.w3.org/2000/svg" width="66" height="59.889" viewBox="0 0 66 59.889">
  <path id="icon_bannergames" d="M336.142,623.4l-1.48,12.6h1.862a2.861,2.861,0,0,1,2.865,2.857v4.934a2.861,2.861,0,0,1-2.865,2.857h-6.2a2.852,2.852,0,0,1-.444-.045,4.266,4.266,0,0,1-2.292,2.507,11.465,11.465,0,0,1-1.181.414h-49.25a13.694,13.694,0,0,1-1.848-.8,4.562,4.562,0,0,1-1.922-2.959V611.034c.045-.135.1-.272.128-.411a4.38,4.38,0,0,1,4.191-3.333q24.077-.029,48.159,0a4.345,4.345,0,0,1,4.116,3.126c.064.212.132.416.2.624v24.979c.049,0,.1-.014.144-.014h1.632l1.519-12.934a4.1,4.1,0,1,1,2.663.332Zm-54.658,20.666a3.6,3.6,0,0,0,.72.041h39.183c.148,0,.3.007.443,0a1.655,1.655,0,0,0,.231-3.281,3.435,3.435,0,0,0-.658-.034H285.146c-1.129,0-2.258-.015-3.383.012a1.648,1.648,0,0,0-1.608,1.529,1.67,1.67,0,0,0,1.325,1.733Zm41.938-29.152a1.741,1.741,0,0,0-2.041-2h-39.2a1.742,1.742,0,0,0-2.026,2.016v19.135c0,1.489.584,2.086,2.064,2.086h39.2a1.733,1.733,0,0,0,2-1.991V614.916Zm-13.274,1.353h9.92v16.52h-9.925V616.268Zm2.419,6.391a.546.546,0,0,0,.631.642c.591-.007,1.181,0,1.864,0-.11.229-.167.36-.235.484-.549,1.024-1.1,2.044-1.644,3.067-.28.536-.121.8.477.824a5.4,5.4,0,0,0,1.051-.016.779.779,0,0,0,.511-.325q1.175-2.19,2.3-4.407a1.135,1.135,0,0,0-.969-1.481c-1.05-.006-2.11,0-3.158,0-.731,0-.825.1-.829.833,0,.123,0,.25,0,.379Zm-15.729-6.4h9.918v16.523h-9.922V616.268Zm2.419,6.381a.562.562,0,0,0,.678.654c.567-.011,1.139,0,1.814,0-.109.234-.179.381-.253.523-.531.989-1.065,1.974-1.59,2.971-.331.624-.175.868.544.884a3.924,3.924,0,0,0,.886-.02.956.956,0,0,0,.6-.362c.78-1.439,1.537-2.9,2.276-4.357a1.143,1.143,0,0,0-.955-1.493c-1.087-.006-2.177.012-3.268-.006a.6.6,0,0,0-.731.713c0,.165,0,.329,0,.5Zm-15.739-6.381h9.913v16.546h-9.913V616.268Zm3.134,7.037c.568-.015,1.14,0,1.776,0-.1.212-.159.36-.231.5-.545,1.024-1.1,2.043-1.64,3.066-.264.515-.114.778.447.81a5.671,5.671,0,0,0,1.05-.012.792.792,0,0,0,.534-.3q1.194-2.207,2.321-4.458a1.165,1.165,0,0,0-.828-1.458c-1.181-.014-2.364,0-3.545-.007a.514.514,0,0,0-.586.571c0,.2.007.408,0,.608a.579.579,0,0,0,.7.677Zm16.4-19.1H287.557l-2.648-8.742a1.205,1.205,0,0,1,.414-.667,2.628,2.628,0,0,1,1.11-.3l7.223,3.581L302,589.939a.806.806,0,0,1,.5-.275c.052-.008.1-.011.142-.015v-.012h.4v.012a.889.889,0,0,1,.141.015.8.8,0,0,1,.5.275l8.347,8.134,7.222-3.581a2.633,2.633,0,0,1,1.111.3,1.2,1.2,0,0,1,.415.667l-2.648,8.742H303.043Z" transform="translate(-273.389 -589.637)" fill="#f5f5f5" fill-rule="evenodd"/>
</svg>
