<svg xmlns="http://www.w3.org/2000/svg" width="77.131" height="61.336" viewBox="0 0 77.131 61.336">
  <g id="user" transform="translate(19076 23245.746)">
    <path id="User-2" data-name="User" d="M530.583,227.174s12.607,5.443,11,18.187c-3.513,5.342-12.266,5.5-12.266,5.5s3.49-13.218-13.112-24.532a19.81,19.81,0,0,0,4.653-8.46,16.915,16.915,0,0,0-1.269-10.574s9.576-3.135,13.958,5.076C538.736,222.1,530.583,227.174,530.583,227.174Zm-3.833,17.338c2.247,10.506-2.86,15.653-23.448,15.653-12.264,0-28.46-2.2-23.9-16.5a26.056,26.056,0,0,1,14.645-16.415,15.649,15.649,0,1,1,18.165-.058,24.384,24.384,0,0,1,14.538,17.32ZM485.35,218a19.73,19.73,0,0,0,4.628,8.426c-16.515,11.271-13.044,24.437-13.044,24.437s-8.707-.156-12.2-5.477c-1.6-12.7,10.94-18.117,10.94-18.117s-8.111-5.055-2.946-14.746c4.36-8.179,13.886-5.056,13.886-5.056A16.865,16.865,0,0,0,485.35,218Z" transform="translate(-19540.594 -23444.574)" fill="#f5f5f5" fill-rule="evenodd"/>
  </g>
</svg>
