<svg id="close" xmlns="http://www.w3.org/2000/svg" width="44" height="44" viewBox="0 0 44 44">
  <path id="close-2" data-name="close" d="M1681.84,73l6.44,6.437a1.315,1.315,0,0,1,0,1.839,1.3,1.3,0,0,1-1.84,0L1680,74.839l-6.44,6.437a1.3,1.3,0,0,1-1.84,0,1.315,1.315,0,0,1,0-1.839L1678.16,73l-6.44-6.437a1.315,1.315,0,0,1,0-1.839,1.3,1.3,0,0,1,1.84,0l6.44,6.437,6.44-6.437a1.3,1.3,0,0,1,1.84,0,1.315,1.315,0,0,1,0,1.839Z" transform="translate(-1658.346 -51.342)" fill-rule="evenodd"/>
  <rect id="Rectangle_199" data-name="Rectangle 199" width="44" height="44" fill="none"/>
</svg>
